<?xml version="1.0" encoding="UTF-8"?>
<svg width="3300px" height="2200px" viewBox="0 0 3300 2200" version="1.1" xmlns="http://www.w3.org/2000/svg" xmlns:xlink="http://www.w3.org/1999/xlink">
    <!-- Generator: Sketch Beta 64 (93508) - https://sketch.com -->
    <title>Untitled 11</title>
    <desc>Created with Sketch Beta.</desc>
    <g id="Page-1" stroke="none" stroke-width="1" fill="none" fill-rule="evenodd">
        <g id="heart.slash">
            <g id="Notes">
                <rect id="artboard" fill="#FFFFFF" fill-rule="nonzero" x="0" y="0" width="3300" height="2200"></rect>
                <line x1="263" y1="292" x2="3036" y2="292" id="Path" stroke="#000000" stroke-width="0.5"></line>
                <text id="Weight/Scale-Variations" fill="#000000" font-family="Helvetica-Bold, Helvetica" font-size="13" font-weight="bold">
                    <tspan x="263" y="322">Weight/Scale Variations</tspan>
                </text>
                <text id="Ultralight" fill="#000000" font-family="Helvetica" font-size="13" font-weight="normal">
                    <tspan x="533.711" y="322">Ultralight</tspan>
                </text>
                <text id="Thin" fill="#000000" font-family="Helvetica" font-size="13" font-weight="normal">
                    <tspan x="843.422" y="322">Thin</tspan>
                </text>
                <text id="Light" fill="#000000" font-family="Helvetica" font-size="13" font-weight="normal">
                    <tspan x="1138.63" y="322">Light</tspan>
                </text>
                <text id="Regular" fill="#000000" font-family="Helvetica" font-size="13" font-weight="normal">
                    <tspan x="1426.84" y="322">Regular</tspan>
                </text>
                <text id="Medium" fill="#000000" font-family="Helvetica" font-size="13" font-weight="normal">
                    <tspan x="1723.06" y="322">Medium</tspan>
                </text>
                <text id="Semibold" fill="#000000" font-family="Helvetica" font-size="13" font-weight="normal">
                    <tspan x="2015.77" y="322">Semibold</tspan>
                </text>
                <text id="Bold" fill="#000000" font-family="Helvetica" font-size="13" font-weight="normal">
                    <tspan x="2326.48" y="322">Bold</tspan>
                </text>
                <text id="Heavy" fill="#000000" font-family="Helvetica" font-size="13" font-weight="normal">
                    <tspan x="2618.19" y="322">Heavy</tspan>
                </text>
                <text id="Black" fill="#000000" font-family="Helvetica" font-size="13" font-weight="normal">
                    <tspan x="2917.4" y="322">Black</tspan>
                </text>
                <line x1="263" y1="1903" x2="3036" y2="1903" id="Path" stroke="#000000" stroke-width="0.5"></line>
                <g id="Group" transform="translate(264.000000, 1918.000000)" fill="#000000" fill-rule="nonzero">
                    <path d="M8.24805,15.830078 C12.5547,15.830078 16.1387,12.25586 16.1387,7.94922 C16.1387,3.6426 12.5449,0.0684 8.23828,0.0684 C3.94141,0.0684 0.36719,3.6426 0.36719,7.94922 C0.36719,12.25586 3.95117,15.830078 8.24805,15.830078 Z M8.24805,14.345703 C4.70312,14.345703 1.87109,11.50391 1.87109,7.94922 C1.87109,4.3945 4.69336,1.5527 8.23828,1.5527 C11.793,1.5527 14.6348,4.3945 14.6445252,7.94922 C14.6543,11.50391 11.8027,14.345703 8.24805,14.345703 Z M8.22852,11.57227 C8.69727,11.57227 8.9707,11.25977 8.9707,10.74219 L8.9707,8.68164 L11.1973,8.68164 C11.6953,8.68164 12.0371,8.42773 12.0371,7.95898 C12.0371,7.48047 11.7148,7.2168 11.1973,7.2168 L8.9707,7.2168 L8.9707,4.9902 C8.9707,4.4727 8.69727,4.1504 8.22852,4.1504 C7.75977,4.1504 7.50586,4.4922 7.50586,4.9902 L7.50586,7.2168 L5.29883,7.2168 C4.78125,7.2168 4.44922,7.48047 4.44922,7.95898 C4.44922,8.42773 4.80078,8.68164 5.29883,8.68164 L7.50586,8.68164 L7.50586,10.74219 C7.50586,11.24023 7.75977,11.57227 8.22852,11.57227 Z" id="Shape"></path>
                </g>
                <g id="Group" transform="translate(282.506000, 1915.000000)" fill="#000000" fill-rule="nonzero">
                    <path d="M10.709,20.91016 C16.1582,20.91016 20.6699,16.39844 20.6699,10.94922 C20.6699,5.5098 16.1484,0.9883 10.6992,0.9883 C5.25977,0.9883 0.74805,5.5098 0.74805,10.94922 C0.74805,16.39844 5.26953,20.91016 10.709,20.91016 Z M10.709,19.25 C6.09961,19.25 2.41797,15.55859 2.41797,10.94922 C2.41797,6.3496 6.08984,2.6484 10.6992,2.6484 C15.3086,2.6484 19,6.3496 19.009819,10.94922 C19.0195,15.55859 15.3184,19.25 10.709,19.25 Z M10.6895,15.58789 C11.207,15.58789 11.5195,15.22656 11.5195,14.66016 L11.5195,11.76953 L14.5762,11.76953 C15.123,11.76953 15.5039,11.48633 15.5039,10.96875 C15.5039,10.44141 15.1426,10.13867 14.5762,10.13867 L11.5195,10.13867 L11.5195,7.0723 C11.5195,6.4961 11.207,6.1445 10.6895,6.1445 C10.1719,6.1445 9.8789,6.5156 9.8789,7.0723 L9.8789,10.13867 L6.83203,10.13867 C6.26562,10.13867 5.89453,10.44141 5.89453,10.96875 C5.89453,11.48633 6.28516,11.76953 6.83203,11.76953 L9.8789,11.76953 L9.8789,14.66016 C9.8789,15.20703 10.1719,15.58789 10.6895,15.58789 Z" id="Shape"></path>
                </g>
                <g id="Group" transform="translate(306.924000, 1913.000000)" fill="#000000" fill-rule="nonzero">
                    <path d="M12.9707,25.67383 C19.9336,25.67383 25.6953,19.921875 25.6953,12.95898 C25.6953,5.9961 19.9238,0.2441 12.9609,0.2441 C6.00781,0.2441 0.25586,5.9961 0.25586,12.95898 C0.25586,19.921875 6.01758,25.67383 12.9707,25.67383 Z M12.9707,23.85742 C6.93555,23.85742 2.08203,18.99414 2.08203,12.95898 C2.08203,6.9238 6.92578,2.0605 12.9609,2.0605 C19.0059,2.0605 23.8594,6.9238 23.8691148,12.95898 C23.8789,18.99414 19.0156,23.85742 12.9707,23.85742 Z M12.9512,18.93555 C13.5176,18.93555 13.8691,18.54492 13.8691,17.93945 L13.8691,13.86719 L18.1074,13.86719 C18.6934,13.86719 19.1133,13.53516 19.1133,12.97852 C19.1133,12.40234 18.7227,12.06055 18.1074,12.06055 L13.8691,12.06055 L13.8691,7.8125 C13.8691,7.1973 13.5176,6.8066 12.9512,6.8066 C12.3848,6.8066 12.0625,7.2168 12.0625,7.8125 L12.0625,12.06055 L7.83398,12.06055 C7.21875,12.06055 6.80859,12.40234 6.80859,12.97852 C6.80859,13.53516 7.23828,13.86719 7.83398,13.86719 L12.0625,13.86719 L12.0625,17.93945 C12.0625,18.52539 12.3848,18.93555 12.9512,18.93555 Z" id="Shape"></path>
                </g>
                <text id="Design-Variations" fill="#000000" font-family="Helvetica-Bold, Helvetica" font-size="13" font-weight="bold">
                    <tspan x="263" y="1953">Design Variations</tspan>
                </text>
                <text id="Symbols-are-supported-in-up-to-nine-weights-and-three-scales." fill="#000000" font-family="Helvetica" font-size="13" font-weight="normal">
                    <tspan x="263" y="1971">Symbols are supported in up to nine weights and three scales.</tspan>
                </text>
                <text id="For-optimal-layout-with-text-and-other-symbols,-vertically-align" fill="#000000" font-family="Helvetica" font-size="13" font-weight="normal">
                    <tspan x="263" y="1989">For optimal layout with text and other symbols, vertically align</tspan>
                </text>
                <text id="symbols-with-the-adjacent-text." fill="#000000" font-family="Helvetica" font-size="13" font-weight="normal">
                    <tspan x="263" y="2007">symbols with the adjacent text.</tspan>
                </text>
                <rect id="Rectangle" fill="#00AEEF" fill-rule="nonzero" opacity="0.4" x="776" y="1919" width="3" height="14"></rect>
                <g id="Group" transform="translate(779.000000, 1918.000000)" fill="#000000" fill-rule="nonzero">
                    <path d="M10.5273,15 L12.373,15 L7.17773,0.9082 L5.43945,0.9082 L0.244141,15 L2.08984,15 L3.50586,10.9668 L9.11133,10.9668 L10.5273,15 Z M6.2793,3.0469 L6.33789,3.0469 L8.59375,9.47266 L4.02344,9.47266 L6.2793,3.0469 Z" id="Shape"></path>
                </g>
                <rect id="Rectangle" fill="#00AEEF" fill-rule="nonzero" opacity="0.4" x="791.617" y="1919" width="3" height="14"></rect>
                <text id="Margins" fill="#000000" font-family="Helvetica-Bold, Helvetica" font-size="13" font-weight="bold">
                    <tspan x="776" y="1953">Margins</tspan>
                </text>
                <text id="Leading-and-trailing-margins-on-the-left-and-right-side-of-each-symbol" fill="#000000" font-family="Helvetica" font-size="13" font-weight="normal">
                    <tspan x="776" y="1971">Leading and trailing margins on the left and right side of each symbol</tspan>
                </text>
                <text id="can-be-adjusted-by-modifying-the-width-of-the-blue-rectangles." fill="#000000" font-family="Helvetica" font-size="13" font-weight="normal">
                    <tspan x="776" y="1989">can be adjusted by modifying the width of the blue rectangles.</tspan>
                </text>
                <text id="Modifications-are-automatically-applied-proportionally-to-all" fill="#000000" font-family="Helvetica" font-size="13" font-weight="normal">
                    <tspan x="776" y="2007">Modifications are automatically applied proportionally to all</tspan>
                </text>
                <text id="scales-and-weights." fill="#000000" font-family="Helvetica" font-size="13" font-weight="normal">
                    <tspan x="776" y="2025">scales and weights.</tspan>
                </text>
                <g id="Group" transform="translate(1291.000000, 1915.000000)" fill="#000000" fill-rule="nonzero">
                    <path d="M0.83203,21.11523 L2.375,22.6582 C3.22461,23.48828 4.19141,23.41992 5.06055,22.46289 L15.2754,11.33984 C15.7051,11.63281 16.0957,11.62305 16.5645,11.52539 L17.6094,11.31055 L18.3027,12.00391 L18.2539,12.52148 C18.1855,13.04883 18.3516,13.46875 18.8496,13.9668 L19.6602,14.77734 C20.168,15.28516 20.8223,15.31445 21.3008,14.83594 L24.5527,11.58398 C25.0312,11.10547 25.0117,10.45117 24.5039,9.94336 L23.6836,9.12305 C23.1855,8.625 22.7754,8.44922 22.2383,8.52734 L21.7109,8.58594 L21.0566,7.9219 L21.3398,6.7793 C21.4863,6.2129 21.3398,5.7441 20.7148,5.1387 L18.3027,2.7461 C14.7578,-0.7793 10.2266,-0.6719 7.11133,2.4629 C6.69141,2.8926 6.64258,3.4785 6.91602,3.9082 C7.15039,4.2793 7.62891,4.5039 8.2734,4.3379 C9.7871,3.957 11.3008,4.0742 12.7852,5.0801 L12.1602,6.6621 C11.9258,7.248 11.9453,7.7266 12.1797,8.16602 L1.01758,18.439453 C0.08008,19.30859 -0.02734,20.25586 0.83203,21.11523 Z M8.6738,2.8535 C11.3398,0.8613 14.6504,1.1738 17.0527,3.5859 L19.6797,6.1934 C19.9141,6.4277 19.9434,6.6133 19.8848,6.9062 L19.5039,8.46875 L21.0762,10.04102 L22.043,9.95312 C22.3262,9.92383 22.4141,9.94336 22.6387,10.16797 L23.2637,10.79297 L20.5098,13.53711 L19.8848,12.92188 C19.6602,12.69727 19.6406,12.59961 19.6699,12.31641 L19.7578,11.35938 L18.1953,9.79688 L16.5742,10.10938 C16.291,10.16797 16.1445,10.16797 15.9102,9.92383 L13.7324,7.7461 C13.5078,7.5117 13.4785,7.375 13.6055,7.0527 L14.5527,4.7773 C12.9512,3.2441 10.8418,2.3945 8.8008,3.0488 C8.7129,3.0781 8.6445,3.0586 8.6152,3.0195 C8.5859,2.9707 8.5859,2.9219 8.6738,2.8535 Z M2.10156,20.41211 C1.61328,19.91406 1.78906,19.61133 2.12109,19.30859 L13.0781,9.19141 L14.3086,10.42188 L4.15234,21.34961 C3.84961,21.68164 3.46875,21.7793 3.06836,21.37891 L2.10156,20.41211 Z" id="Shape"></path>
                </g>
                <text id="Exporting" fill="#000000" font-family="Helvetica-Bold, Helvetica" font-size="13" font-weight="bold">
                    <tspan x="1289" y="1953">Exporting</tspan>
                </text>
                <text id="Symbols-should-be-outlined-when-exporting-to-ensure-the" fill="#000000" font-family="Helvetica" font-size="13" font-weight="normal">
                    <tspan x="1289" y="1971">Symbols should be outlined when exporting to ensure the</tspan>
                </text>
                <text id="design-is-preserved-when-submitting-to-Xcode." fill="#000000" font-family="Helvetica" font-size="13" font-weight="normal">
                    <tspan x="1289" y="1989">design is preserved when submitting to Xcode.</tspan>
                </text>
                <text id="template-version" fill="#000000" font-family="Helvetica" font-size="13" font-weight="normal">
                    <tspan x="2952" y="1933">Template v.1.0</tspan>
                </text>
                <text id="Generated-from-heart.slash" fill="#000000" font-family="Helvetica" font-size="13" font-weight="normal">
                    <tspan x="2877" y="1951">Generated from heart.slash</tspan>
                </text>
                <text id="Typeset-at-100-points" fill="#000000" font-family="Helvetica" font-size="13" font-weight="normal">
                    <tspan x="2912" y="1969">Typeset at 100 points</tspan>
                </text>
                <text id="Small" fill="#000000" font-family="Helvetica" font-size="13" font-weight="normal">
                    <tspan x="263" y="726">Small</tspan>
                </text>
                <text id="Medium" fill="#000000" font-family="Helvetica" font-size="13" font-weight="normal">
                    <tspan x="263" y="1156">Medium</tspan>
                </text>
                <text id="Large" fill="#000000" font-family="Helvetica" font-size="13" font-weight="normal">
                    <tspan x="263" y="1586">Large</tspan>
                </text>
            </g>
            <g id="Guides" transform="translate(263.000000, 625.000000)">
                <g id="H-reference" transform="translate(76.000000, 0.000000)" fill="#27AAE1" fill-rule="nonzero">
                    <path d="M54.9316,71 L57.666,71 L30.5664,0.541 L28.0762,0.541 L0.976562,71 L3.66211,71 L12.9395,46.5371 L45.7031,46.5371 L54.9316,71 Z M29.1992,3.9102 L29.4434,3.9102 L44.8242,44.291 L13.8184,44.291 L29.1992,3.9102 Z" id="Shape"></path>
                </g>
                <line x1="0" y1="71" x2="2773" y2="71" id="Baseline-S" stroke="#27AAE1" stroke-width="0.577"></line>
                <line x1="0" y1="0.541" x2="2773" y2="0.541" id="Capline-S" stroke="#27AAE1" stroke-width="0.577"></line>
                <g id="H-reference" transform="translate(76.000000, 430.000000)" fill="#27AAE1" fill-rule="nonzero">
                    <path d="M54.9316,71 L57.666,71 L30.5664,0.541 L28.0762,0.541 L0.976562,71 L3.66211,71 L12.9395,46.5371 L45.7031,46.5371 L54.9316,71 Z M29.1992,3.9102 L29.4434,3.9102 L44.8242,44.291 L13.8184,44.291 L29.1992,3.9102 Z" id="Shape"></path>
                </g>
                <line x1="0" y1="501" x2="2773" y2="501" id="Baseline-M" stroke="#27AAE1" stroke-width="0.577"></line>
                <line x1="0" y1="430.54" x2="2773" y2="430.54" id="Capline-M" stroke="#27AAE1" stroke-width="0.577"></line>
                <g id="H-reference" transform="translate(76.000000, 860.000000)" fill="#27AAE1" fill-rule="nonzero">
                    <path d="M54.9316,71 L57.666,71 L30.5664,0.541 L28.0762,0.541 L0.976562,71 L3.66211,71 L12.9395,46.5371 L45.7031,46.5371 L54.9316,71 Z M29.1992,3.9102 L29.4434,3.9102 L44.8242,44.291 L13.8184,44.291 L29.1992,3.9102 Z" id="Shape"></path>
                </g>
                <line x1="0" y1="931" x2="2773" y2="931" id="Baseline-L" stroke="#27AAE1" stroke-width="0.577"></line>
                <line x1="0" y1="860.54" x2="2773" y2="860.54" id="Capline-L" stroke="#27AAE1" stroke-width="0.577"></line>
                <rect id="left-margin" fill="#00AEEF" fill-rule="nonzero" opacity="0.4" x="1126.3" y="405.79" width="7.48291" height="119.336"></rect>
                <rect id="right-margin" fill="#00AEEF" fill-rule="nonzero" opacity="0.4" x="1235.33" y="405.79" width="12.0605" height="119.336"></rect>
            </g>
            <g id="Symbols" transform="translate(496.000000, 618.000000)" fill="#000000" fill-rule="nonzero">
                <g id="Black-L" transform="translate(2364.560000, 834.000000)">
                    <path d="M121.908,129.9277 C124.154,132.125 127.865,132.1738 130.062,129.9277 C132.211,127.6816 132.309,124.0684 130.062,121.7734 L10.4824,2.291 C8.1875,0.045 4.5254,0.045 2.2793,2.291 C0.08203,4.4883 0.08203,8.248 2.2793,10.4453 L121.908,129.9277 Z" id="Shape"></path>
                </g>
                <g id="Heavy-L" transform="translate(2069.000000, 835.000000)">
                    <path d="M120.248,127.707 C122.396,129.8066 125.814,129.8066 127.865,127.707 C129.916,125.6074 129.965,122.2383 127.865,120.1387 L9.8477,2.17 C7.748,0.07 4.2812,0.021 2.1328,2.17 C0.13086,4.1719 0.13086,7.7363 2.1328,9.7383 L120.248,127.707 Z" id="Shape"></path>
                </g>
                <g id="Bold-L" transform="translate(1773.560000, 836.000000)">
                    <path d="M118.441,125.3887 C120.395,127.293 123.568,127.3418 125.424,125.3887 C127.328,123.4355 127.377,120.3105 125.424,118.3574 L9.1152,2.0977 C7.1621,0.193 3.9883,0.145 2.0352,2.0977 C0.17969,4.002 0.17969,7.2246 2.0352,9.1289 L118.441,125.3887 Z" id="Shape"></path>
                </g>
                <g id="Semibold-L" transform="translate(1477.750000, 837.000000)">
                    <path d="M117.172,123.4609 C118.979,125.2676 122.006,125.2676 123.764,123.4609 C125.57,121.6055 125.57,118.6758 123.764,116.8691 L8.627,1.7812 C6.8203,-0.025 3.793,-0.074 1.9863,1.7812 C0.17969,3.5391 0.17969,6.6152 1.9863,8.373 L117.172,123.4609 Z" id="Shape"></path>
                </g>
                <g id="Medium-L" transform="translate(1181.700000, 837.000000)">
                    <path d="M116.195,122.7773 C117.953,124.4863 120.785,124.4863 122.494,122.7773 C124.203,120.9707 124.252,118.2363 122.494,116.4785 L8.2363,2.2695 C6.5273,0.561 3.6953,0.512 1.8887,2.2695 C0.22852,3.9785 0.22852,6.9082 1.8887,8.5684 L116.195,122.7773 Z" id="Shape"></path>
                </g>
                <g id="Regular-L" transform="translate(885.870000, 838.000000)">
                    <path d="M114.926,120.8496 C116.586,122.4609 119.271,122.4609 120.834,120.8496 C122.445,119.1895 122.445,116.6016 120.834,114.9414 L7.748,1.9531 C6.1855,0.3418 3.5,0.293 1.8398,1.9531 C0.22852,3.5156 0.22852,6.25 1.8398,7.8125 L114.926,120.8496 Z" id="Shape"></path>
                </g>
                <g id="Light-L" transform="translate(590.720000, 839.000000)">
                    <path d="M113.852,118.4824 C115.121,119.752 117.172,119.752 118.393,118.4824 C119.711,117.2129 119.662,115.2109 118.393,113.9414 L6.1367,1.7344 C4.9648,0.5137 2.8652,0.416 1.5469,1.7344 C0.32617,2.9551 0.32617,5.0547 1.5469,6.2754 L113.852,118.4824 Z" id="Shape"></path>
                </g>
                <g id="Thin-L" transform="translate(296.082000, 841.000000)">
                    <path d="M112.436,114.7246 C113.168,115.5059 114.438,115.5059 115.219,114.7246 C116.049,113.8945 116,112.6738 115.219,111.9414 L4.0371,0.7598 C3.3535,0.0273 2.084,-0.1191 1.2051,0.7598 C0.47266,1.4922 0.47266,2.7617 1.2051,3.543 L112.436,114.7246 Z" id="Shape"></path>
                </g>
                <g id="Ultralight-L" transform="translate(0.445000, 841.000000)">
                    <path d="M111.654,113.7969 C112.191,114.334 113.021,114.334 113.559,113.7969 C114.193,113.2109 114.096,112.4297 113.559,111.8926 L2.9629,1.248 C2.5234,0.8086 1.6445,0.6621 1.0586,1.248 C0.52148,1.7852 0.52148,2.6152 1.0586,3.1523 L111.654,113.7969 Z" id="Shape"></path>
                </g>
                <g id="Black-M" transform="translate(2380.260000, 419.000000)">
                    <path d="M96.076,102.0371 C97.834,103.7461 100.715,103.7949 102.375,102.0371 C104.084,100.3281 104.133,97.49609 102.375,95.73828 L8.0879,1.5 C6.3301,-0.209 3.4492,-0.209 1.74023,1.5 C0.03125,3.209 0.03125,6.1387 1.74023,7.7988 L96.076,102.0371 Z" id="Shape"></path>
                </g>
                <g id="Heavy-M" transform="translate(2084.410000, 419.000000)">
                    <path d="M94.562,101.1094 C96.271,102.7207 99.006,102.7695 100.666,101.1094 C102.277,99.4004 102.326,96.71484 100.666,95.00586 L7.7949,2.2324 C6.1348,0.5723 3.3516,0.5723 1.69141,2.2324 C0.08008,3.8926 0.08008,6.6758 1.69141,8.3359 L94.562,101.1094 Z" id="Shape"></path>
                </g>
                <g id="Bold-M" transform="translate(1788.650000, 420.000000)">
                    <path d="M92.9023,99.0352 C94.514,100.5977 97.15,100.6465 98.713,99.0352 C100.275,97.42383 100.324,94.83594 98.713,93.22461 L7.502,2.0625 C5.8906,0.4512 3.2539,0.4512 1.64258,2.0625 C0.08008,3.625 0.08008,6.3105 1.64258,7.873 L92.9023,99.0352 Z" id="Shape"></path>
                </g>
                <g id="Semibold-M" transform="translate(1492.570000, 421.000000)">
                    <path d="M91.7305,97.3027 C93.293,98.8164 95.832,98.8652 97.346,97.3027 C98.859,95.74023 98.908,93.20117 97.346,91.63867 L7.2578,1.6484 C5.7441,0.0859 3.1562,0.0859 1.59375,1.6484 C0.08008,3.1621 0.08008,5.75 1.59375,7.2637 L91.7305,97.3027 Z" id="Shape"></path>
                </g>
                <g id="Medium-M" transform="translate(1196.350000, 421.000000)">
                    <path d="M90.8516,96.7168 C92.3652,98.2305 94.855,98.2305 96.32,96.7168 C97.834,95.20312 97.834,92.76172 96.32,91.24805 L7.1113,2.0879 C5.5977,0.5742 3.1074,0.5254 1.59375,2.0879 C0.08008,3.5527 0.08008,6.0918 1.59375,7.5566 L90.8516,96.7168 Z" id="Shape"></path>
                </g>
                <g id="Regular-M" transform="translate(900.300000, 422.000000)">
                    <path d="M89.6797,94.98438 C91.1445,96.498 93.586,96.498 95.002,94.98438 C96.418,93.51953 96.467,91.17578 95.002,89.66211 L6.916,1.625 C5.4512,0.1602 3.0098,0.1602 1.54492,1.625 C0.12891,3.041 0.12891,5.5312 1.54492,6.9473 L89.6797,94.98438 Z" id="Shape"></path>
                </g>
                <g id="Light-M" transform="translate(605.000000, 423.000000)">
                    <path d="M88.7031,92.8125 C89.8262,93.93555 91.7305,93.93555 92.8047,92.8125 C93.977,91.64062 93.977,89.78516 92.8047,88.66211 L5.4512,1.3086 C4.3281,0.2344 2.47266,0.1367 1.30078,1.3086 C0.17773,2.4316 0.17773,4.3359 1.30078,5.459 L88.7031,92.8125 Z" id="Shape"></path>
                </g>
                <g id="Thin-M" transform="translate(310.147000, 424.000000)">
                    <path d="M87.3848,90.20117 C88.1172,90.88477 89.2402,90.88477 89.9727,90.20117 C90.7051,89.41992 90.6562,88.3457 89.9727,87.66211 L3.5469,1.2363 C2.91211,0.6016 1.74023,0.5039 1.00781,1.2363 C0.32422,1.9688 0.32422,3.0918 1.00781,3.8242 L87.3848,90.20117 Z" id="Shape"></path>
                </g>
                <g id="Ultralight-M" transform="translate(14.388000, 425.000000)">
                    <path d="M86.75,88.37109 C87.2383,88.85938 88.0195,88.85938 88.5078,88.37109 C89.0449,87.83398 88.9473,87.10156 88.5078,86.61328 L2.57031,0.7246 C2.17969,0.2852 1.39844,0.1875 0.86133,0.7246 C0.37305,1.2129 0.37305,1.9941 0.86133,2.4824 L86.75,88.37109 Z" id="Shape"></path>
                </g>
                <g id="Black-S" transform="translate(2392.200000, 0.000000)">
                    <path d="M75.6641,80.53906 C77.0312,81.85742 79.2773,81.90625 80.5957,80.53906 C81.9141,79.17188 81.9629,76.97461 80.5957,75.60742 L6.8164,1.877 C5.4492,0.5098 3.20312,0.5098 1.83594,1.877 C0.51758,3.1953 0.51758,5.4902 1.83594,6.8086 L75.6641,80.53906 Z" id="Shape"></path>
                </g>
                <g id="Heavy-S" transform="translate(2095.980000, 1.000000)">
                    <path d="M74.5898,78.95312 C75.957,80.27148 78.2031,80.32031 79.5215,78.95312 C80.791,77.585938 80.8398,75.38867 79.5215,74.07031 L6.7676,1.3652 C5.4004,-0.002 3.20312,-0.002 1.83594,1.3652 C0.51758,2.6836 0.51758,4.9297 1.83594,6.248 L74.5898,78.95312 Z" id="Shape"></path>
                </g>
                <g id="Bold-S" transform="translate(1799.810000, 1.000000)">
                    <path d="M73.418,78.26953 C74.7852,79.58789 76.9824,79.63672 78.3008,78.26953 C79.5703,76.9511719 79.6191,74.75391 78.3008,73.43555 L6.7188,1.9023 C5.3516,0.584 3.1543,0.584 1.83594,1.9023 C0.51758,3.2207 0.51758,5.4668 1.83594,6.7363 L73.418,78.26953 Z" id="Shape"></path>
                </g>
                <g id="Semibold-S" transform="translate(1503.490000, 2.000000)">
                    <path d="M72.6367,76.830078 C73.9551,78.14844 76.1523,78.14844 77.4219,76.830078 C78.7402,75.462891 78.7891,73.36328 77.4219,71.99609 L6.6699,1.293 C5.3516,-0.0254 3.1543,-0.0742 1.78711,1.293 C0.51758,2.5625 0.51758,4.8086 1.78711,6.0781 L72.6367,76.830078 Z" id="Shape"></path>
                </g>
                <g id="Medium-S" transform="translate(1207.070000, 2.000000)">
                    <path d="M72.002,76.439453 C73.3203,77.75781 75.5176,77.80664 76.7871,76.439453 C78.0566,75.121094 78.1055,73.02148 76.7871,71.70312 L6.6211,1.5859 C5.3027,0.2676 3.1543,0.2188 1.78711,1.5859 C0.51758,2.8555 0.51758,5.0527 1.78711,6.3711 L72.002,76.439453 Z" id="Shape"></path>
                </g>
                <g id="Regular-S" transform="translate(910.720000, 2.000000)">
                    <path d="M71.2207,76 C72.5391,77.31836 74.6875,77.31836 75.957,76 C77.2266,74.68164 77.2754,72.58203 75.957,71.26367 L6.5723,1.9277 C5.3027,0.6094 3.10547,0.6094 1.78711,1.9277 C0.51758,3.1973 0.51758,5.3945 1.78711,6.6641 L71.2207,76 Z" id="Shape"></path>
                </g>
                <g id="Light-S" transform="translate(615.260000, 3.000000)">
                    <path d="M70.3418,73.92578 C71.3672,74.9511719 73.0273,74.9511719 74.0527,73.92578 C75.0293,72.90039 75.0781,71.28906 74.0527,70.26367 L5.3027,1.5625 C4.32617,0.5371 2.61719,0.5371 1.5918,1.5625 C0.61523,2.5391 0.61523,4.248 1.5918,5.2246 L70.3418,73.92578 Z" id="Shape"></path>
                </g>
                <g id="Thin-S" transform="translate(320.183000, 4.000000)">
                    <path d="M69.2188,71.50977 C69.8535,72.14453 70.8789,72.14453 71.5137,71.50977 C72.1484,70.875 72.1484,69.84961 71.5137,69.21484 L3.64258,1.3438 C3.05664,0.7578 1.98242,0.709 1.34766,1.3438 C0.71289,1.9785 0.71289,3.0527 1.34766,3.6875 L69.2188,71.50977 Z" id="Shape"></path>
                </g>
                <g id="Ultralight-S" transform="translate(24.326000, 5.000000)">
                    <path d="M68.6328,69.77734 C69.0723,70.2168 69.7559,70.2168 70.1953,69.77734 C70.6836,69.33789 70.6348,68.6543 70.1953,68.21484 L2.76367,0.7832 C2.37305,0.3926 1.68945,0.2949 1.20117,0.7832 C0.76172,1.2227 0.76172,1.9551 1.20117,2.3457 L68.6328,69.77734 Z" id="Shape"></path>
                </g>
            </g>
        </g>
    </g>
</svg>