<?xml version="1.0" encoding="UTF-8"?>
<svg width="3300px" height="2200px" viewBox="0 0 3300 2200" version="1.1" xmlns="http://www.w3.org/2000/svg" xmlns:xlink="http://www.w3.org/1999/xlink">
    <title>tap</title>
    <g id="Page-1" stroke="none" stroke-width="1" fill="none" fill-rule="evenodd">
        <g id="hand.draw">
            <g id="Notes">
                <rect id="artboard" fill="#FFFFFF" fill-rule="nonzero" x="0" y="0" width="3300" height="2200"></rect>
                <line x1="263" y1="292" x2="3036" y2="292" id="Path" stroke="#000000" stroke-width="0.5"></line>
                <text id="Weight/Scale-Variations" fill="#000000" font-family="Helvetica-Bold, Helvetica" font-size="13" font-weight="bold">
                    <tspan x="263" y="322">Weight/Scale Variations</tspan>
                </text>
                <text id="Ultralight" fill="#000000" font-family="Helvetica" font-size="13" font-weight="normal">
                    <tspan x="533.711" y="322">Ultralight</tspan>
                </text>
                <text id="Thin" fill="#000000" font-family="Helvetica" font-size="13" font-weight="normal">
                    <tspan x="843.422" y="322">Thin</tspan>
                </text>
                <text id="Light" fill="#000000" font-family="Helvetica" font-size="13" font-weight="normal">
                    <tspan x="1138.63" y="322">Light</tspan>
                </text>
                <text id="Regular" fill="#000000" font-family="Helvetica" font-size="13" font-weight="normal">
                    <tspan x="1426.84" y="322">Regular</tspan>
                </text>
                <text id="Medium" fill="#000000" font-family="Helvetica" font-size="13" font-weight="normal">
                    <tspan x="1723.06" y="322">Medium</tspan>
                </text>
                <text id="Semibold" fill="#000000" font-family="Helvetica" font-size="13" font-weight="normal">
                    <tspan x="2015.77" y="322">Semibold</tspan>
                </text>
                <text id="Bold" fill="#000000" font-family="Helvetica" font-size="13" font-weight="normal">
                    <tspan x="2326.48" y="322">Bold</tspan>
                </text>
                <text id="Heavy" fill="#000000" font-family="Helvetica" font-size="13" font-weight="normal">
                    <tspan x="2618.19" y="322">Heavy</tspan>
                </text>
                <text id="Black" fill="#000000" font-family="Helvetica" font-size="13" font-weight="normal">
                    <tspan x="2917.4" y="322">Black</tspan>
                </text>
                <line x1="263" y1="1903" x2="3036" y2="1903" id="Path" stroke="#000000" stroke-width="0.5"></line>
                <g id="Group" transform="translate(264.000000, 1918.000000)" fill="#000000" fill-rule="nonzero">
                    <path d="M8.24805,15.830078 C12.5547,15.830078 16.1387,12.25586 16.1387,7.94922 C16.1387,3.6426 12.5449,0.0684 8.23828,0.0684 C3.94141,0.0684 0.36719,3.6426 0.36719,7.94922 C0.36719,12.25586 3.95117,15.830078 8.24805,15.830078 Z M8.24805,14.345703 C4.70312,14.345703 1.87109,11.50391 1.87109,7.94922 C1.87109,4.3945 4.69336,1.5527 8.23828,1.5527 C11.793,1.5527 14.6348,4.3945 14.6445252,7.94922 C14.6543,11.50391 11.8027,14.345703 8.24805,14.345703 Z M8.22852,11.57227 C8.69727,11.57227 8.9707,11.25977 8.9707,10.74219 L8.9707,8.68164 L11.1973,8.68164 C11.6953,8.68164 12.0371,8.42773 12.0371,7.95898 C12.0371,7.48047 11.7148,7.2168 11.1973,7.2168 L8.9707,7.2168 L8.9707,4.9902 C8.9707,4.4727 8.69727,4.1504 8.22852,4.1504 C7.75977,4.1504 7.50586,4.4922 7.50586,4.9902 L7.50586,7.2168 L5.29883,7.2168 C4.78125,7.2168 4.44922,7.48047 4.44922,7.95898 C4.44922,8.42773 4.80078,8.68164 5.29883,8.68164 L7.50586,8.68164 L7.50586,10.74219 C7.50586,11.24023 7.75977,11.57227 8.22852,11.57227 Z" id="Shape"></path>
                </g>
                <g id="Group" transform="translate(282.506000, 1915.000000)" fill="#000000" fill-rule="nonzero">
                    <path d="M10.709,20.91016 C16.1582,20.91016 20.6699,16.39844 20.6699,10.94922 C20.6699,5.5098 16.1484,0.9883 10.6992,0.9883 C5.25977,0.9883 0.74805,5.5098 0.74805,10.94922 C0.74805,16.39844 5.26953,20.91016 10.709,20.91016 Z M10.709,19.25 C6.09961,19.25 2.41797,15.55859 2.41797,10.94922 C2.41797,6.3496 6.08984,2.6484 10.6992,2.6484 C15.3086,2.6484 19,6.3496 19.009819,10.94922 C19.0195,15.55859 15.3184,19.25 10.709,19.25 Z M10.6895,15.58789 C11.207,15.58789 11.5195,15.22656 11.5195,14.66016 L11.5195,11.76953 L14.5762,11.76953 C15.123,11.76953 15.5039,11.48633 15.5039,10.96875 C15.5039,10.44141 15.1426,10.13867 14.5762,10.13867 L11.5195,10.13867 L11.5195,7.0723 C11.5195,6.4961 11.207,6.1445 10.6895,6.1445 C10.1719,6.1445 9.8789,6.5156 9.8789,7.0723 L9.8789,10.13867 L6.83203,10.13867 C6.26562,10.13867 5.89453,10.44141 5.89453,10.96875 C5.89453,11.48633 6.28516,11.76953 6.83203,11.76953 L9.8789,11.76953 L9.8789,14.66016 C9.8789,15.20703 10.1719,15.58789 10.6895,15.58789 Z" id="Shape"></path>
                </g>
                <g id="Group" transform="translate(306.924000, 1913.000000)" fill="#000000" fill-rule="nonzero">
                    <path d="M12.9707,25.67383 C19.9336,25.67383 25.6953,19.921875 25.6953,12.95898 C25.6953,5.9961 19.9238,0.2441 12.9609,0.2441 C6.00781,0.2441 0.25586,5.9961 0.25586,12.95898 C0.25586,19.921875 6.01758,25.67383 12.9707,25.67383 Z M12.9707,23.85742 C6.93555,23.85742 2.08203,18.99414 2.08203,12.95898 C2.08203,6.9238 6.92578,2.0605 12.9609,2.0605 C19.0059,2.0605 23.8594,6.9238 23.8691148,12.95898 C23.8789,18.99414 19.0156,23.85742 12.9707,23.85742 Z M12.9512,18.93555 C13.5176,18.93555 13.8691,18.54492 13.8691,17.93945 L13.8691,13.86719 L18.1074,13.86719 C18.6934,13.86719 19.1133,13.53516 19.1133,12.97852 C19.1133,12.40234 18.7227,12.06055 18.1074,12.06055 L13.8691,12.06055 L13.8691,7.8125 C13.8691,7.1973 13.5176,6.8066 12.9512,6.8066 C12.3848,6.8066 12.0625,7.2168 12.0625,7.8125 L12.0625,12.06055 L7.83398,12.06055 C7.21875,12.06055 6.80859,12.40234 6.80859,12.97852 C6.80859,13.53516 7.23828,13.86719 7.83398,13.86719 L12.0625,13.86719 L12.0625,17.93945 C12.0625,18.52539 12.3848,18.93555 12.9512,18.93555 Z" id="Shape"></path>
                </g>
                <text id="Design-Variations" fill="#000000" font-family="Helvetica-Bold, Helvetica" font-size="13" font-weight="bold">
                    <tspan x="263" y="1953">Design Variations</tspan>
                </text>
                <text id="Symbols-are-supported-in-up-to-nine-weights-and-three-scales." fill="#000000" font-family="Helvetica" font-size="13" font-weight="normal">
                    <tspan x="263" y="1971">Symbols are supported in up to nine weights and three scales.</tspan>
                </text>
                <text id="For-optimal-layout-with-text-and-other-symbols,-vertically-align" fill="#000000" font-family="Helvetica" font-size="13" font-weight="normal">
                    <tspan x="263" y="1989">For optimal layout with text and other symbols, vertically align</tspan>
                </text>
                <text id="symbols-with-the-adjacent-text." fill="#000000" font-family="Helvetica" font-size="13" font-weight="normal">
                    <tspan x="263" y="2007">symbols with the adjacent text.</tspan>
                </text>
                <rect id="Rectangle" fill="#00AEEF" fill-rule="nonzero" opacity="0.4" x="776" y="1919" width="3" height="14"></rect>
                <g id="Group" transform="translate(779.000000, 1918.000000)" fill="#000000" fill-rule="nonzero">
                    <path d="M10.5273,15 L12.373,15 L7.17773,0.9082 L5.43945,0.9082 L0.244141,15 L2.08984,15 L3.50586,10.9668 L9.11133,10.9668 L10.5273,15 Z M6.2793,3.0469 L6.33789,3.0469 L8.59375,9.47266 L4.02344,9.47266 L6.2793,3.0469 Z" id="Shape"></path>
                </g>
                <rect id="Rectangle" fill="#00AEEF" fill-rule="nonzero" opacity="0.4" x="791.617" y="1919" width="3" height="14"></rect>
                <text id="Margins" fill="#000000" font-family="Helvetica-Bold, Helvetica" font-size="13" font-weight="bold">
                    <tspan x="776" y="1953">Margins</tspan>
                </text>
                <text id="Leading-and-trailing-margins-on-the-left-and-right-side-of-each-symbol" fill="#000000" font-family="Helvetica" font-size="13" font-weight="normal">
                    <tspan x="776" y="1971">Leading and trailing margins on the left and right side of each symbol</tspan>
                </text>
                <text id="can-be-adjusted-by-modifying-the-width-of-the-blue-rectangles." fill="#000000" font-family="Helvetica" font-size="13" font-weight="normal">
                    <tspan x="776" y="1989">can be adjusted by modifying the width of the blue rectangles.</tspan>
                </text>
                <text id="Modifications-are-automatically-applied-proportionally-to-all" fill="#000000" font-family="Helvetica" font-size="13" font-weight="normal">
                    <tspan x="776" y="2007">Modifications are automatically applied proportionally to all</tspan>
                </text>
                <text id="scales-and-weights." fill="#000000" font-family="Helvetica" font-size="13" font-weight="normal">
                    <tspan x="776" y="2025">scales and weights.</tspan>
                </text>
                <g id="Group" transform="translate(1291.000000, 1915.000000)" fill="#000000" fill-rule="nonzero">
                    <path d="M0.83203,21.11523 L2.375,22.6582 C3.22461,23.48828 4.19141,23.41992 5.06055,22.46289 L15.2754,11.33984 C15.7051,11.63281 16.0957,11.62305 16.5645,11.52539 L17.6094,11.31055 L18.3027,12.00391 L18.2539,12.52148 C18.1855,13.04883 18.3516,13.46875 18.8496,13.9668 L19.6602,14.77734 C20.168,15.28516 20.8223,15.31445 21.3008,14.83594 L24.5527,11.58398 C25.0312,11.10547 25.0117,10.45117 24.5039,9.94336 L23.6836,9.12305 C23.1855,8.625 22.7754,8.44922 22.2383,8.52734 L21.7109,8.58594 L21.0566,7.9219 L21.3398,6.7793 C21.4863,6.2129 21.3398,5.7441 20.7148,5.1387 L18.3027,2.7461 C14.7578,-0.7793 10.2266,-0.6719 7.11133,2.4629 C6.69141,2.8926 6.64258,3.4785 6.91602,3.9082 C7.15039,4.2793 7.62891,4.5039 8.2734,4.3379 C9.7871,3.957 11.3008,4.0742 12.7852,5.0801 L12.1602,6.6621 C11.9258,7.248 11.9453,7.7266 12.1797,8.16602 L1.01758,18.439453 C0.08008,19.30859 -0.02734,20.25586 0.83203,21.11523 Z M8.6738,2.8535 C11.3398,0.8613 14.6504,1.1738 17.0527,3.5859 L19.6797,6.1934 C19.9141,6.4277 19.9434,6.6133 19.8848,6.9062 L19.5039,8.46875 L21.0762,10.04102 L22.043,9.95312 C22.3262,9.92383 22.4141,9.94336 22.6387,10.16797 L23.2637,10.79297 L20.5098,13.53711 L19.8848,12.92188 C19.6602,12.69727 19.6406,12.59961 19.6699,12.31641 L19.7578,11.35938 L18.1953,9.79688 L16.5742,10.10938 C16.291,10.16797 16.1445,10.16797 15.9102,9.92383 L13.7324,7.7461 C13.5078,7.5117 13.4785,7.375 13.6055,7.0527 L14.5527,4.7773 C12.9512,3.2441 10.8418,2.3945 8.8008,3.0488 C8.7129,3.0781 8.6445,3.0586 8.6152,3.0195 C8.5859,2.9707 8.5859,2.9219 8.6738,2.8535 Z M2.10156,20.41211 C1.61328,19.91406 1.78906,19.61133 2.12109,19.30859 L13.0781,9.19141 L14.3086,10.42188 L4.15234,21.34961 C3.84961,21.68164 3.46875,21.7793 3.06836,21.37891 L2.10156,20.41211 Z" id="Shape"></path>
                </g>
                <text id="Exporting" fill="#000000" font-family="Helvetica-Bold, Helvetica" font-size="13" font-weight="bold">
                    <tspan x="1289" y="1953">Exporting</tspan>
                </text>
                <text id="Symbols-should-be-outlined-when-exporting-to-ensure-the" fill="#000000" font-family="Helvetica" font-size="13" font-weight="normal">
                    <tspan x="1289" y="1971">Symbols should be outlined when exporting to ensure the</tspan>
                </text>
                <text id="design-is-preserved-when-submitting-to-Xcode." fill="#000000" font-family="Helvetica" font-size="13" font-weight="normal">
                    <tspan x="1289" y="1989">design is preserved when submitting to Xcode.</tspan>
                </text>
                <text id="template-version" fill="#000000" font-family="Helvetica" font-size="13" font-weight="normal">
                    <tspan x="2952" y="1933">Template v.1.0</tspan>
                </text>
                <text id="Generated-from-hand.draw" fill="#000000" font-family="Helvetica" font-size="13" font-weight="normal">
                    <tspan x="2880" y="1951">Generated from hand.draw</tspan>
                </text>
                <text id="Typeset-at-100-points" fill="#000000" font-family="Helvetica" font-size="13" font-weight="normal">
                    <tspan x="2912" y="1969">Typeset at 100 points</tspan>
                </text>
                <text id="Small" fill="#000000" font-family="Helvetica" font-size="13" font-weight="normal">
                    <tspan x="263" y="726">Small</tspan>
                </text>
                <text id="Medium" fill="#000000" font-family="Helvetica" font-size="13" font-weight="normal">
                    <tspan x="263" y="1156">Medium</tspan>
                </text>
                <text id="Large" fill="#000000" font-family="Helvetica" font-size="13" font-weight="normal">
                    <tspan x="263" y="1586">Large</tspan>
                </text>
            </g>
            <g id="Guides" transform="translate(263.000000, 625.000000)">
                <g id="H-reference" transform="translate(76.000000, 0.000000)" fill="#27AAE1" fill-rule="nonzero">
                    <path d="M54.9316,71 L57.666,71 L30.5664,0.541 L28.0762,0.541 L0.976562,71 L3.66211,71 L12.9395,46.5371 L45.7031,46.5371 L54.9316,71 Z M29.1992,3.9102 L29.4434,3.9102 L44.8242,44.291 L13.8184,44.291 L29.1992,3.9102 Z" id="Shape"></path>
                </g>
                <line x1="0" y1="71" x2="2773" y2="71" id="Baseline-S" stroke="#27AAE1" stroke-width="0.577"></line>
                <line x1="0" y1="0.541" x2="2773" y2="0.541" id="Capline-S" stroke="#27AAE1" stroke-width="0.577"></line>
                <g id="H-reference" transform="translate(76.000000, 430.000000)" fill="#27AAE1" fill-rule="nonzero">
                    <path d="M54.9316,71 L57.666,71 L30.5664,0.541 L28.0762,0.541 L0.976562,71 L3.66211,71 L12.9395,46.5371 L45.7031,46.5371 L54.9316,71 Z M29.1992,3.9102 L29.4434,3.9102 L44.8242,44.291 L13.8184,44.291 L29.1992,3.9102 Z" id="Shape"></path>
                </g>
                <line x1="0" y1="501" x2="2773" y2="501" id="Baseline-M" stroke="#27AAE1" stroke-width="0.577"></line>
                <line x1="0" y1="430.54" x2="2773" y2="430.54" id="Capline-M" stroke="#27AAE1" stroke-width="0.577"></line>
                <g id="H-reference" transform="translate(76.000000, 860.000000)" fill="#27AAE1" fill-rule="nonzero">
                    <path d="M54.9316,71 L57.666,71 L30.5664,0.541 L28.0762,0.541 L0.976562,71 L3.66211,71 L12.9395,46.5371 L45.7031,46.5371 L54.9316,71 Z M29.1992,3.9102 L29.4434,3.9102 L44.8242,44.291 L13.8184,44.291 L29.1992,3.9102 Z" id="Shape"></path>
                </g>
                <line x1="0" y1="931" x2="2773" y2="931" id="Baseline-L" stroke="#27AAE1" stroke-width="0.577"></line>
                <line x1="0" y1="860.54" x2="2773" y2="860.54" id="Capline-L" stroke="#27AAE1" stroke-width="0.577"></line>
                <rect id="left-margin" fill="#00AEEF" fill-rule="nonzero" opacity="0.4" x="1146.66" y="405.79" width="8.74023" height="119.336"></rect>
                <rect id="right-margin" fill="#00AEEF" fill-rule="nonzero" opacity="0.4" x="1241.28" y="405.79" width="8.74518" height="119.336"></rect>
            </g>
            <g id="Symbols" transform="translate(519.000000, 606.000000)" fill="#000000" fill-rule="nonzero">
                <g id="Black-L" transform="translate(2371.120000, 829.000000)">
                    <path d="M27.9512,71.1465 C28.0488,71.4883 28,71.7324 27.6582,71.8789 C27.4629,71.9277 27.1699,71.8301 27.0234,71.5859 L23.9961,68.2656 C18.5273,62.0645 10.7637,61.7715 5.2949,66.5078 C-0.9062,71.9766 -0.9551,80.375 5.2461,87.8945 L26.4863,113.48047 C44.0645,134.7207 64.914,141.2148 88.303,132.7188 C117.355,122.07422 129.123,96.2441 118.381,66.752 L112.57,50.7852 C107.199,36.0879 96.604,29.7402 84.201,33.8418 C80.783,29.7891 75.266,28.5684 69.65,30.5703 C67.99,31.2051 66.525,31.9863 65.207,33.0117 C61.35,28.5195 55.637,27.0547 49.875,29.1543 C48.8984,29.4961 48.0195,29.9355 47.2383,30.375 L40.3535,11.479 C37.1309,2.592 28.6348,-1.412 19.7969,1.811 C11.4949257,4.85894441 7.42818306,12.5934269 9.71720333,20.9456934 C9.77981488,21.1741529 15.8578138,37.9077551 27.9512,71.1465 Z M84.25,120.267578 C65.402,127.10352 50.2168,123.09961 35.8613,105.7168 L14.6211,80.082 C13.1074,78.2754 13.2051,76.4199 14.4746,75.1992 C15.8418,73.8809 17.7949,74.2227 19.2109,75.5898 L34.7383,90.4336 C38.1074,93.6562 40.6953,94.3398 43.4297,93.3145 C46.4082,92.2402 47.7754,88.9688 46.2129,84.7207 L21.9941,18.119 C21.1641,15.824 22.0918,14.066 24.0449,13.383 C25.9004,12.699 27.6582,13.48 28.4883,15.727 L45.4316,62.2598 C46.457,65.0918 49.7773,66.459 52.6582,65.4336 C55.539,64.3594 57.053,61.2344 55.979,58.4023 L50.3633,42.875 C50.9492,42.1426 51.9258,41.5078 52.8535,41.166 C55.246,40.2871 57.199,41.459 58.029,43.7539 L63.352,58.4023 C64.426,61.332 67.697,62.6504 70.578,61.5762 C73.459,60.5508 74.924,57.4258 73.898,54.5938 L70.139,44.291 C70.773,43.5586 71.701,42.9238 72.678,42.582 C75.021,41.752 76.975,42.875 77.854,45.1699 L81.271,54.5938 C82.297,57.4258 85.617,58.793 88.547,57.7676 C91.281,56.7422 92.893,53.5684 91.867,50.7363 L90.012,45.707 C94.113,44.1934 98.312,48.2461 101.34,56.5957 L106.125,69.7793 C114.768,93.4121 106.369,112.21094 84.25,120.267578 Z" id="Shape"></path>
                </g>
                <g id="Heavy-L" transform="translate(2074.970000, 832.000000)">
                    <path d="M28.4375,70.6367 C28.584,70.9785 28.4863,71.2227 28.1934,71.3691 C27.9492,71.418 27.7051,71.3203 27.5098,71.125 L23.1152,66.2422 C17.8418,60.334 10.4688,59.9922 5.2441,64.5332 C-0.7129,69.7578 -0.7617,77.7168 5.1465,84.8457 L26.4355,110.57812 C43.4766,131.1836 63.74,137.5312 86.396,129.2793 C114.277,119.07422 125.85,94.1719 115.254,65.1191 L109.785,49.9824 C104.512,35.5293 94.258,29.377 82.246,33.4297 C78.975,29.4258 73.701,28.1562 68.281,30.1582 C66.572,30.7441 65.107,31.5742 63.691,32.6973 C60.029,28.2539 54.5117,26.7891 48.8965,28.8398 C47.8223,29.2305 46.8457,29.7188 45.918,30.3535 L38.9355,11.115 C35.8594,2.619 27.8516,-1.092 19.5508,1.936 C11.25,4.963 7.4414,12.971 10.5664,21.4668 L28.4375,70.6367 Z M82.783,118.097656 C64.473,124.73828 49.1406,120.83203 34.8828,103.5957 L13.5938,77.8633 C11.8848,75.8125 11.9336,73.7617 13.4473,72.3457 C15.0098,70.9297 17.1582,71.3203 18.7207,72.9316 L34.0039,87.873 C37.0801,90.9004 39.5703,91.4863 42.1094,90.5098 C44.9414,89.4844 46.2109,86.4082 44.8438,82.5508 L21.1133,17.463 C20.2344,15.021 21.2109,13.068 23.3594,12.287 C25.4102,11.555 27.3633,12.434 28.2422,14.875 L44.8438,60.5293 C45.7715,63.1172 48.7988,64.3867 51.4355,63.4102 C54.0723,62.4824 55.391,59.6016 54.4629,57.0137 L48.7988,41.4863 C49.4824,40.7051 50.5566,40.0215 51.582,39.6309 C54.1211,38.7031 56.27,39.9238 57.197,42.4629 L62.422,56.7695 C63.398,59.4551 66.377,60.6758 68.965,59.6992 C71.553,58.7715 72.969,55.9395 71.992,53.3027 L68.184,42.7559 C68.867,41.9746 69.893,41.291 70.918,40.9492 C73.506,40.0215 75.605,41.1934 76.582,43.7812 L79.951,53.0586 C80.928,55.6953 83.955,56.916 86.543,55.9883 C89.082,55.0605 90.547,52.1797 89.57,49.543 L87.568,44.0254 C92.061,42.3652 96.504,46.5156 99.678,55.2559 L104.268,67.8535 C112.91,91.584 104.512,110.1875 82.783,118.097656 Z" id="Shape"></path>
                </g>
                <g id="Bold-L" transform="translate(1779.140000, 836.000000)">
                    <path d="M28.8262,69.4688 C28.9238,69.7617 28.875,70.0547 28.5332,70.1523 C28.3379,70.25 28.0449,70.1035 27.8984,69.9082 L21.9414,63.3652 C16.8633,57.7012 9.9297,57.4082 4.9492,61.7051 C-0.7148,66.5879 -0.8125,74.0586 4.8027,80.8457 L26.1406,106.67578 C42.5957,126.5488 62.176,132.7012 84.051,124.791 C110.613,115.07422 121.941,91.1484 111.541,62.6328 L106.414,48.4727 C101.238,34.3125 91.424,28.3555 79.852,32.3105 C76.727,28.4043 71.697,27.0859 66.473,28.9902 C64.764,29.625 63.25,30.5039 61.736,31.627 C58.318,27.3301 53.0449,25.8652 47.625,27.8184 C46.4043,28.2578 45.2812,28.8926 44.207,29.625 L37.127,10.094 C34.1973,2.037 26.7266,-1.381 19.0605,1.402 C11.2969,4.186 7.7812,11.656 10.7109,19.7129 L28.8262,69.4688 Z M80.877,115.02539 C63.152,121.4707 47.7227,117.66211 33.5625,100.5723 L12.2246,74.7422 C10.2715,72.4473 10.3203,70.1035 12.0293,68.541 C13.7871,66.9785 16.1309,67.4668 17.9375,69.3223 L32.9766,84.3613 C35.7598,87.1445 38.0547,87.584 40.3984,86.7539 C43.084,85.7773 44.2559,82.9453 43.0352,79.5273 L19.9395,16.0508 C19.0117,13.512 20.0371,11.314 22.332,10.484 C24.627,9.654 26.7266,10.68 27.6543,13.219 L43.9629,57.9453 C44.793,60.2891 47.4785,61.4121 49.8223,60.5332 C52.166,59.7031 53.3379,57.1641 52.5078,54.8203 L46.8438,39.2441 C47.625,38.4141 48.7969,37.6816 49.8711,37.291 C52.7031,36.2656 54.998,37.5352 56.0234,40.416 L61.102,54.2832 C61.98,56.7734 64.617,57.7988 66.961,56.9199 C69.256,56.0898 70.525,53.6484 69.646,51.207 L65.691,40.416 C66.521,39.5859 67.645,38.8535 68.768,38.4629 C71.551,37.4375 73.846,38.6582 74.92,41.5879 L78.24,50.6699 C79.119,53.1113 81.805,54.1855 84.1,53.3066 C86.346,52.5254 87.664,50.0352 86.785,47.5938 L84.588,41.4902 C89.52,39.7324 94.256,43.9316 97.576,53.0625 L101.922,65.0254 C110.613,88.8535 102.215,107.21289 80.877,115.02539 Z" id="Shape"></path>
                </g>
                <g id="Semibold-L" transform="translate(1483.430000, 838.000000)">
                    <path d="M28.6543,69.373 C28.8008,69.666 28.7031,69.959 28.4102,70.0566 C28.166,70.1543 27.9219,70.0566 27.7266,69.8125 L20.7441,62.1465 C15.7637,56.6289 9.1719,56.3359 4.3379,60.4863 C-1.082,65.1738 -1.2285,72.3027 4.1914,78.8457 L25.5781,104.72461 C41.5938,124.1582 60.734,130.1641 82.023,122.4492 C107.707,113.07422 118.889,89.832 108.635,61.707 L103.703,48.1816 C98.625,34.2168 89.104,28.4062 77.775,32.3125 C74.797,28.4062 69.963,27.0879 64.836,28.9434 C63.176,29.5781 61.564,30.5059 60.051,31.6777 C56.7305,27.4785 51.6035,25.9648 46.3301,27.918 C45.0605,28.3574 43.791,29.041 42.668,29.8711 L35.4414,10.096 C32.6582,2.381 25.5293,-0.842 18.3027,1.795 C10.9785,4.48 7.6094,11.512 10.4414,19.2266 L28.6543,69.373 Z M79.143,113.66016 C61.857,119.91016 46.3789,116.24805 32.3164,99.207 L10.8809,73.3281 C8.7812,70.8379 8.7812,68.3477 10.6855,66.6875 C12.5898,65.0273 15.0801,65.5156 17.0332,67.5664 L31.877,82.7031 C34.416,85.291 36.6133,85.6816 38.8594,84.9004 C41.3984,83.9727 42.5215,81.2871 41.3984,78.1621 L18.7422,15.8574 C17.7656,13.1719 18.8398,10.877 21.2812,9.949 C23.7227,9.07 25.9688,10.193 26.9453,12.8789 L42.9609,56.873 C43.7422,59.0703 46.1348,60.0957 48.332,59.3145 C50.4805,58.5332 51.5547,56.1895 50.7734,54.041 L45.1094,38.5137 C45.9883,37.6348 47.209,36.8535 48.332,36.4141 C51.3105,35.3398 53.752,36.6582 54.875,39.7344 L59.807,53.3574 C60.637,55.6523 63.078,56.5801 65.178,55.7988 C67.229,55.0664 68.449,52.8203 67.619,50.4766 L63.615,39.5391 C64.494,38.6602 65.715,37.8789 66.838,37.4883 C69.816,36.4141 72.258,37.7324 73.381,40.8086 L76.652,49.793 C77.482,52.1367 79.924,53.0156 82.072,52.2832 C84.074,51.502 85.344,49.2559 84.514,46.9609 L82.17,40.5156 C87.395,38.6113 92.326,42.9082 95.744,52.332 L99.943,63.8555 C108.635,87.7324 100.236,105.94531 79.143,113.66016 Z" id="Shape"></path>
                </g>
                <g id="Medium-L" transform="translate(1187.210000, 840.000000)">
                    <path d="M28.8242,68.8379 C28.9219,69.1309 28.873,69.4238 28.5312,69.5215 C28.3359,69.6191 28.0918,69.5215 27.8965,69.2773 L20.084,60.7324 C15.2012,55.3613 8.8535,55.0684 4.1172,59.0723 C-1.1074,63.6133 -1.3027,70.498 3.9707,76.8457 L25.4062,102.77344 C41.1289,121.8164 59.879,127.7734 80.729,120.1562 C105.777,111.02539 116.764,88.3691 106.656,60.4883 L101.92,47.4512 C96.891,33.6328 87.564,27.9688 76.48,31.8262 C73.551,27.9688 68.863,26.6504 63.883,28.457 C62.174,29.0918 60.562,30.0195 59,31.2402 C55.7773,27.0898 50.7969,25.5762 45.6211,27.4805 C44.2539,27.9688 42.9355,28.7012 41.7148,29.5801 L34.4395,9.658 C31.7539,2.188 24.918,-0.889 17.9844,1.602 C11.002,4.189 7.7305,10.9277 10.4648,18.3984 L28.8242,68.8379 Z M78.141,112.09961 C61.148,118.30078 45.5723,114.6875 31.5586,97.6953 L10.123,71.8164 C7.9258,69.1797 7.877,66.543 9.9277,64.7852 C11.8809,63.0762 14.5176,63.5645 16.5684,65.8105 L31.2656,80.9473 C33.6582,83.4375 35.7578,83.7793 37.9062,82.998 C40.3477,82.1191 41.4707,79.5312 40.3965,76.6504 L18.0332,15.2246 C17.0566,12.4902 18.1309,10 20.7188,9.072 C23.2578,8.145 25.6016,9.365 26.5781,12.0996 L42.4473,55.6055 C43.1797,57.6562 45.4258,58.6328 47.4277,57.9004 C49.4785,57.168 50.4551,55.0195 49.7227,52.9688 L44.0586,37.4414 C44.9375,36.5137 46.207,35.7324 47.4277,35.293 C50.5039,34.1699 53.043,35.4883 54.2148,38.7598 L59.098,52.1387 C59.879,54.3359 62.125,55.166 64.078,54.4336 C65.982,53.75 67.154,51.6992 66.324,49.502 L62.32,38.418 C63.199,37.4902 64.469,36.709 65.689,36.2695 C68.766,35.1465 71.305,36.4648 72.477,39.7363 L75.699,48.6719 C76.529,50.8691 78.775,51.6992 80.729,50.9668 C82.633,50.2832 83.805,48.2324 82.975,46.0352 L80.533,39.2969 C86.051,37.3438 91.08,41.6406 94.596,51.3086 L98.648,62.4414 C107.389,86.416 98.99,104.53125 78.141,112.09961 Z" id="Shape"></path>
                </g>
                <g id="Regular-L" transform="translate(890.470000, 843.000000)">
                    <path d="M29.7012,67.7422 C29.7988,68.0352 29.75,68.3281 29.4082,68.4258 C29.2129,68.5234 28.9688,68.4258 28.7734,68.1816 L19.9355,58.4648 C15.1504,53.2891 9.0957,52.9961 4.5547,56.8535 C-0.4746,61.1504 -0.6699,67.7422 4.3594,73.8457 L25.8438,99.87109 C41.127,118.4258 59.4375,124.2363 79.75,116.81445 C103.871,108.02539 114.76,86.0527 104.75,58.5137 L100.258,46.1602 C95.277,32.5371 86.293,26.9707 75.502,30.7793 C72.67,26.9707 68.178,25.6035 63.295,27.4102 C61.586,28.0449 59.9258,28.9727 58.3145,30.2422 C55.2383,26.1895 50.4043,24.6758 45.375,26.5312 C43.9102,27.0195 42.4941,27.8496 41.1758,28.8262 L33.8516,8.6602 C31.2637,1.531 24.7695,-1.398 18.2754,0.994 C11.6836,3.387 8.6074,9.7832 11.1953,16.9121 L29.7012,67.7422 Z M77.455,109.73438 C60.8535,115.78906 45.2773,112.22461 31.3125,95.3789 L9.8281,69.4023 C7.4844,66.6191 7.3867,63.8359 9.584,61.9316 C11.6836,60.0762 14.4668,60.6621 16.7129,63.0547 L31.2148,78.2891 C33.3633,80.584 35.3652,80.877 37.3672,80.1445 C39.7109,79.3145 40.7363,76.873 39.8086,74.334 L17.8848,14.0312 C16.8105,11.1504 17.9824,8.5625 20.668,7.5371 C23.3535,6.561 25.8438,7.8789 26.8691,10.7109 L42.4453,53.582 C43.1289,55.4375 45.1309,56.3652 46.9863,55.6816 C48.793,54.998 49.6719,53.0449 48.9883,51.1895 L43.373,35.6621 C44.3008,34.7344 45.668,33.8555 46.8887,33.416 C50.1113,32.2441 52.7969,33.6113 54.0664,37.0781 L58.8027,50.1641 C59.584,52.2148 61.586,52.9473 63.344,52.2637 C65.053,51.6777 66.127,49.8223 65.346,47.7715 L61.293,36.541 C62.221,35.6133 63.588,34.7344 64.809,34.2949 C68.031,33.123 70.717,34.4902 71.986,37.957 L75.16,46.7949 C75.941,48.8457 77.943,49.5293 79.701,48.8945 C81.41,48.2598 82.484,46.4531 81.752,44.4023 L79.164,37.3223 C84.926,35.2227 90.199,39.6172 93.812,49.5293 L97.67,60.2715 C106.41,84.2949 98.061,102.26367 77.455,109.73438 Z" id="Shape"></path>
                </g>
                <g id="Light-L" transform="translate(593.740000, 845.000000)">
                    <path d="M30.748,68.8672 C30.8945,69.1602 30.7969,69.4531 30.5039,69.5508 C30.2598,69.6484 30.0156,69.5508 29.7715,69.2578 L18.9805,57.2461 C14.3906,52.168 8.5312,52.0215 4.2832,55.6348 C-0.3066,59.541 -0.5996,65.6934 4.0391,71.3086 L26.0605,98.01758 C40.4648,115.5469 58.2383,121.1133 77.77,113.98438 C100.67,105.634766 111.803,84.9316 101.891,57.6855 L97.643,46.0645 C92.711,32.4414 84.215,27.0215 73.766,30.6836 C71.031,27.0215 66.637,25.6055 61.8516,27.3633 C60.0938,27.998 58.4336,29.0234 56.7734,30.293 C53.9414,26.4355 49.3027,24.9707 44.4199,26.7285 C42.9062,27.3145 41.3438,28.1934 39.9277,29.2676 L32.3594,8.5156 C29.918,1.826 23.8633,-0.762 18.0527,1.387 C12.0469,3.584 9.1172,9.3945 11.5586,16.084 L30.748,68.8672 Z M75.963,108.51562 C59.3125,114.57031 43.4922,110.37109 30.3574,94.4531 L8.3848,67.7441 C5.8945,64.7656 5.7969,61.6895 8.2383,59.6387 C10.5332,57.5879 13.6094,58.1738 16.0508,60.9082 L30.4551,76.3867 C32.3105,78.3887 34.1172,78.6816 35.9727,77.998 C38.1211,77.2168 39.1465,75.1172 38.2676,72.6758 L16.8809,13.8379 C15.6602,10.5664 16.8809,7.6367 19.9082,6.5137 C22.9844,5.3906 25.6699,6.9043 26.8418,10.1758 L41.9785,51.7285 C42.5156,53.291 44.0781,54.1699 45.6406,53.6328 C47.2031,53.0469 47.7891,51.3867 47.2031,49.8242 L41.6367,34.5898 C42.8086,33.5156 44.2734,32.5879 45.6406,32.0996 C49.2051,30.8301 52.1348,32.3438 53.5508,36.2988 L57.9941,48.457 C58.6777,50.3125 60.2891,50.8496 61.6562,50.3613 C63.0234,49.873 63.9023,48.4082 63.2188,46.5527 L59.1172,35.1758 C60.2402,34.1504 61.7539,33.2227 63.0723,32.7344 C66.637,31.416 69.566,32.9785 71.031,36.8848 L74.01,45.1855 C74.693,47.041 76.305,47.5781 77.721,47.0898 C79.039,46.6016 79.967,45.1367 79.283,43.2812 L76.549,35.8105 C83.043,33.4668 88.609,37.959 92.516,48.6035 L96.373,59.1992 C105.211,83.4668 96.08,101.19141 75.963,108.51562 Z" id="Shape"></path>
                </g>
                <g id="Thin-L" transform="translate(296.937000, 848.000000)">
                    <path d="M32.209,69.9688 C32.3555,70.2617 32.2578,70.5547 31.9648,70.6523 C31.7207,70.75 31.4766,70.6523 31.1836,70.3594 L17.8047,55.3203 C13.3613,50.291 7.7461,50.291 3.9375,53.6113 C-0.0176,57.0293 -0.457,62.6445 3.6445,67.625 L26.3496,95.26172 C39.582,111.375 56.6719,116.5996 75.227,109.86133 C96.418,102.146484 107.99,83.1523 98.176,56.1992 L94.27,45.5547 C89.338,31.9805 81.477,26.707 71.516,30.2715 C68.977,26.707 64.7285,25.2422 59.9922,26.9512 C58.1855,27.5859 56.4766,28.6602 54.7676,30.0273 C52.2773,26.4141 47.8828,24.9492 43.1465,26.6582 C41.5352,27.293 39.8262,28.3184 38.2637,29.5391 L30.4023,7.9082 C28.2051,1.854 22.6875,-0.246 17.7559,1.512 C12.5801,3.416 9.8457,8.543 12.043,14.5977 L32.209,69.9688 Z M74.055,106.54102 C57.3066,112.6445 41.1934,107.56641 29.1816,92.86914 L6.5254,65.1836 C3.8398,61.9609 3.6934,58.543 6.4277,56.1992 C9.0645,53.9531 12.4336,54.5391 15.2656,57.7129 L29.4746,73.5332 C30.9395,75.1445 32.4531,75.4375 34.1133,74.8516 C36.0176,74.168 37.0918,72.3613 36.3105,70.2129 L15.5586,13.2305 C14.1426,9.373 15.4609,6.0527 18.9766,4.7832 C22.4434,3.4648 25.4707,5.2715 26.8379,9.1289 L41.3398,48.9727 C41.7793,50.1445 42.7559,50.9746 43.9277,50.5352 C45.1484,50.0957 45.2461,48.875 44.8555,47.7031 L39.4355,32.8105 C40.8027,31.6387 42.5117,30.5645 43.9766,30.0273 C47.9805,28.5625 51.3008,30.2715 52.9609,34.8613 L56.916,45.7988 C57.5508,47.4102 58.5762,47.752 59.5039,47.4102 C60.3828,47.1172 61.0176,46.1895 60.4316,44.5293 L56.2324,33.0547 C57.6484,31.8828 59.3086,30.8574 60.8223,30.3203 C64.8262,28.8555 68.146,30.5645 69.807,35.1543 L72.541,42.6738 C73.127,44.334 74.152,44.6758 75.129,44.334 C76.008,43.9922 76.594,43.0645 76.008,41.4043 L73.127,33.4453 C80.5,30.7598 86.604,35.3984 90.803,46.9219 L94.611,57.4199 C103.596,82.0293 93.537,99.46094 74.055,106.54102 Z" id="Shape"></path>
                </g>
                <g id="Ultralight-L" transform="translate(0.252000, 850.000000)">
                    <path d="M32.9395,70.0684 C33.0371,70.3613 32.9395,70.6543 32.6465,70.752 C32.4512,70.8496 32.1582,70.8008 31.8652,70.459 L17.1191,53.8574 C12.8223,48.877 7.3047,48.9746 3.7402,52.1484 C0.0781,55.2734 -0.4102,60.5957 3.3984,65.2344 L26.4941,93.35938 C39.0918,108.74023 55.791,113.8184 73.809,107.27539 C94.219,99.853516 105.938,81.7383 96.221,55.0293 L92.51,44.8242 C87.578,31.2988 80.01,26.123 70.293,29.5898 C67.8516,26.0742 63.6523,24.5605 59.0137,26.2695 C57.1582,26.9531 55.4004,28.0273 53.6914,29.4434 C51.3477,25.9277 47.1484,24.5117 42.5098,26.1719 C40.8008,26.8066 38.9941,27.8809 37.3828,29.1992 L29.375,7.1289 C27.2754,1.416 22.0508,-0.488 17.6074,1.1719 C12.8223,2.8809 10.1855,7.6172 12.2852,13.3789 L32.9395,70.0684 Z M72.979,105.07812 C56.1816,111.1816 39.9707,105.66406 28.5449,91.55273 L5.5469,63.4277 C2.7637,60.1074 2.5684,56.4941 5.4492,54.0039 C8.2812,51.6113 11.8457,52.1973 14.8242,55.6152 L28.9355,71.582 C30.1562,72.998 31.5723,73.291 33.1348,72.7539 C34.8926,72.1191 35.9668,70.5078 35.2344,68.457 L14.873,12.5 C13.3594,8.3496 14.6777,4.7852 18.3887,3.418 C22.1484,2.0508 25.3223,4.0039 26.8359,8.1543 L40.9961,47.0703 C41.3379,48.0469 42.0215,48.8281 42.9492,48.4863 C44.0234,48.0957 43.9258,47.1191 43.584,46.1426 L38.2129,31.3965 C39.7266,30.1758 41.5332,29.1016 43.0469,28.5156 C47.3438,26.9531 50.8105,28.7598 52.6172,33.6914 L56.3281,43.9453 C56.9141,45.5078 57.6465,45.7031 58.3301,45.459 C58.9648,45.2148 59.502,44.5312 58.916,43.0176 L54.7168,31.4941 C56.2305,30.2734 58.0371,29.1504 59.5996,28.6133 C63.8477,27.0508 67.3145,28.8574 69.1211,33.7891 L71.709,40.918 C72.295,42.4805 73.027,42.6758 73.711,42.4316 C74.346,42.1875 74.883,41.5039 74.297,39.9902 L71.318,31.7871 C79.18,28.9062 85.527,33.5938 89.922,45.6543 L93.682,56.0059 C102.715,80.8105 92.217,98.0957 72.979,105.07812 Z" id="Shape"></path>
                </g>
                <g id="Black-M" transform="translate(2379.530000, 415.000000)">
                    <path d="M22.0332,56.7578 C22.1309,57.002 22.082,57.1973 21.8379,57.2949 C21.6426,57.3438 21.3984,57.2461 21.3008,57.0996 L19.7383,55.293 C15.3926,50.2148 8.8984,50.0195 4.6016,53.877 C-0.3789,58.2715 -0.4277,65.1562 4.5527,71.1133 L21.252,91.2305 C35.0703,107.92969 51.8184,113.10547 70.471,106.31836 C93.908,97.72461 103.43,77.168 94.934,53.8281 L90.148,40.6934 C85.9,28.9746 77.404,23.8477 67.443,27.0703 C64.709,23.8965 60.168,22.9688 55.627,24.6289 C54.3574,25.0684 53.2344,25.6543 52.2578,26.4355 C49.1816,22.9199 44.5918,21.7969 39.9531,23.457 C39.3184,23.7012 38.7324,23.9941 38.2441,24.1895 L32.9219,9.6387 C30.334,2.412 23.3516,-0.859 16.0762,1.777 C9.25879469,4.2862721 5.93004361,10.6973656 7.82560022,17.4940374 C7.86524869,17.6362002 12.6011153,30.7241211 22.0332,56.7578 Z M67.053,95.82031 C51.7207,101.38672 39.9043,97.72461 29.1133,84.6875 L12.5117,64.4727 C11.4863,63.3008 11.584,61.9824 12.4141,61.2012 C13.3906,60.2246 14.7578,60.4688 15.7344,61.3477 L27.9902,72.8711 C30.8223,75.5078 32.9219,76.1426 35.2168,75.3125 C37.6094,74.4336 38.7812,71.748 37.4141,68.0371 L18.1758,15.1562 C17.541,13.3496 18.1758,12.0801 19.6406,11.5918 C21.0566,11.0547 22.3262,11.5918 22.9609,13.3984 L36.2422,49.9219 C37.1211,52.3145 39.9043,53.4863 42.2969,52.6074 C44.7383,51.7285 45.9102,49.0918 45.0312,46.748 L40.7344,34.8828 C41.1738,34.2969 41.8574,33.8574 42.541,33.6133 C44.2988,32.9785 45.7637,33.8086 46.3496,35.5176 L50.5,46.8945 C51.3789,49.2871 54.0645,50.459 56.457,49.5801 C58.8984,48.7012 60.0703,46.0645 59.1914,43.7207 L56.4082,36.0059 C56.8477,35.4199 57.5801,34.9805 58.2637,34.7363 C60.0215,34.1016 61.4375,34.9805 62.0723,36.6406 L64.66,43.8672 C65.539,46.2109 68.322,47.3828 70.715,46.5039 C73.01,45.6738 74.328,42.9883 73.449,40.6445 L72.18,37.1777 C75.207,36.0547 78.332,39.1797 80.627,45.4785 L84.631,56.4648 C91.271,74.7754 84.387,89.4727 67.053,95.82031 Z" id="Shape"></path>
                </g>
                <g id="Heavy-M" transform="translate(2083.860000, 418.000000)">
                    <path d="M21.9102,55.6621 C22.0078,55.9062 21.959,56.1016 21.7148,56.1992 C21.5684,56.248 21.3242,56.1504 21.1777,56.0039 L18.6387,53.1719 C14.4395,48.3379 8.3848,48.1426 4.1855,51.8047 C-0.5996,56.0039 -0.6484,62.498 4.1367,68.2598 L20.7383,88.2793 C34.2148,104.58789 50.4258,109.61719 68.492,103.02539 C90.953,94.82227 100.23,74.9004 91.881,52 L87.389,39.5977 C83.189,28.1719 74.986,23.2402 65.367,26.4141 C62.7305,23.2402 58.4336,22.3125 54.0879,23.875 C52.7695,24.3633 51.6465,24.998 50.6211,25.7793 C47.6426,22.3125 43.248,21.1895 38.7559,22.8008 C38.0234,23.0938 37.3398,23.4355 36.7051,23.7773 L31.3828,9.0312 C28.8438,2.1465 22.3008,-0.93 15.4648,1.561 C8.75188634,4.02358526 5.62145311,10.403411 7.91603555,17.1568648 C7.92959804,17.1967821 12.5943195,30.0318605 21.9102,55.6621 Z M65.367,93.50391 C50.6211,98.875 38.8047,95.50586 27.916,82.3223 L11.3145,62.2539 C10.1426,60.8379 10.2402,59.4219 11.2168,58.4453 C12.291,57.4199 13.8535,57.6641 14.9766,58.7383 L26.9883,70.3105 C29.625,72.8008 31.5781,73.3379 33.7266,72.5566 C36.0215,71.7266 37.0957,69.1875 35.875,65.8672 L17.0762,14.2559 C16.4414,12.4004 17.125,10.9844 18.6875,10.4473 C20.2012,9.8613 21.5684,10.4961 22.252,12.3516 L35.3379,48.2891 C36.1191,50.4375 38.6582,51.5605 40.9043,50.7305 C43.1016,49.9004 44.2246,47.5078 43.3945,45.3105 L39.0488,33.3965 C39.5859,32.8105 40.3184,32.3223 41.0508,32.0293 C42.9551,31.3457 44.5176,32.2246 45.1523,34.0801 L49.2539,45.3105 C50.084,47.5566 52.5254,48.582 54.7715,47.752 C56.9688,46.9707 58.0918,44.5781 57.2617,42.3809 L54.3809,34.4219 C54.918,33.8359 55.6504,33.3477 56.3828,33.1035 C58.2871,32.4199 59.8496,33.2988 60.4844,35.1543 L63.1211,42.332 C63.9023,44.5293 66.441,45.6035 68.688,44.8223 C70.787,44.041 72.008,41.5996 71.178,39.4023 L69.762,35.4961 C73.082,34.3242 76.354,37.498 78.746,44.041 L82.506,54.3438 C89.195,72.7031 82.457,87.3027 65.367,93.50391 Z" id="Shape"></path>
                </g>
                <g id="Bold-M" transform="translate(1788.450000, 421.000000)">
                    <path d="M21.6895,54.8105 C21.7871,55.0547 21.6895,55.25 21.4941,55.3477 C21.2988,55.3965 21.1035,55.2988 20.957,55.1523 L17.3438,51.1484 C13.2422,46.6074 7.627,46.3633 3.5742,49.8301 C-0.9668,53.834 -1.0156,59.9375 3.5254,65.4062 L20.0293,85.3281 C33.1641,101.19727 48.7402,106.08008 66.172,99.732422 C87.559,91.91992 96.494,72.7305 88.34,50.3184 L84.141,38.7949 C80.039,27.6133 72.178,22.877 62.9492,26.002 C60.4102,22.9258 56.3574,21.9004 52.207,23.4141 C50.8887,23.9023 49.7168,24.5859 48.6426,25.416 C45.8105,22.0469 41.6113,20.875 37.2656,22.4375 C36.4355,22.7793 35.6543,23.1699 34.9219,23.6582 L29.4531,8.7168 C27.1094,2.2227 21.0059,-0.6582 14.6582,1.6855 C8.3105,3.9805 5.4297,10.084 7.7734,16.627 L21.6895,54.8105 Z M63.4375,91.28516 C49.3262,96.41211 37.4609,93.38477 26.4258,80.0547 L9.9219,60.1328 C8.5547,58.4727 8.6035,56.8613 9.7754,55.7383 C10.9961,54.6152 12.7051,54.957 13.9746,56.2266 L25.7422,67.7988 C28.1348,70.0938 29.9902,70.5332 31.9434,69.8008 C34.1406,69.0195 35.1172,66.6758 34.043,63.7949 L15.7812,13.5508 C15.0977,11.6953 15.8301,10.1328 17.4902,9.498 C19.1504,8.9121 20.6641,9.6445 21.3477,11.5488 L34.1895,46.7539 C34.9219,48.7559 37.168,49.6836 39.2188,48.9512 C41.1719,48.2676 42.1973,46.0703 41.4648,44.1172 L37.1191,32.0566 C37.6562,31.4707 38.4863,30.9336 39.2676,30.6406 C41.3184,29.8594 42.9785,30.8359 43.7109,32.8867 L47.7148,43.873 C48.4961,45.9238 50.7422,46.8516 52.7441,46.1191 C54.6973,45.3867 55.7227,43.2383 54.9902,41.2363 L52.0117,33.0332 C52.5977,32.4473 53.4277,31.9102 54.209,31.6172 C56.2109,30.8848 57.9199,31.8125 58.6523,33.8633 L61.2402,40.9922 C61.9727,43.043 64.2676,43.9707 66.27,43.2383 C68.174,42.5547 69.297,40.3574 68.564,38.3555 L66.953,34.0098 C70.518,32.6914 73.984,35.9141 76.475,42.75 L79.99,52.3691 C86.68,70.7773 80.234,85.1816 63.4375,91.28516 Z" id="Shape"></path>
                </g>
                <g id="Semibold-M" transform="translate(1492.320000, 424.000000)">
                    <path d="M21.8105,53.2754 C21.9082,53.5195 21.8594,53.7637 21.6152,53.8125 C21.4199,53.9102 21.2246,53.8125 21.127,53.6172 L16.7324,48.832 C12.7285,44.4375 7.4062,44.1934 3.5,47.5625 C-0.8945,51.3711 -0.9922,57.1816 3.4023,62.5039 L19.8574,82.377 C32.6992,97.9043 47.8848,102.68945 64.877,96.537109 C85.58,88.96875 94.223,70.3164 86.215,48.2461 L82.211,37.2598 C78.207,26.3223 70.541,21.6836 61.5566,24.7598 C59.1152,21.7324 55.2578,20.707 51.2539,22.1719 C49.9355,22.6602 48.7148,23.3438 47.5918,24.2227 C44.9062,20.9023 40.8047,19.7305 36.6055,21.2441 C35.6777,21.5859 34.75,22.0742 33.9688,22.6602 L28.5,7.5723 C26.2051,1.3223 20.3945,-1.3633 14.3887,0.834 C8.3828,2.9824 5.6484,8.793 7.8945,15.0918 L21.8105,53.2754 Z M62.3867,88.82227 C48.7637,93.75391 36.8496,91.01953 25.7168,77.543 L9.2617,57.7188 C7.748,55.9121 7.748,54.1543 9.1152,52.9336 C10.4336,51.7617 12.2402,52.1035 13.6074,53.5195 L25.2285,65.1895 C27.377,67.3379 29.1836,67.6797 31.0391,66.9961 C33.1387,66.2637 34.0176,64.0176 33.0898,61.4297 L15.1699,12.1621 C14.4375,10.2578 15.2676,8.5977 17.0254,7.9629 C18.7344,7.3281 20.3457,8.1094 21.0293,10.0137 L33.6758,44.7793 C34.3594,46.6348 36.459,47.5137 38.3145,46.8301 C40.1699,46.1465 41.1465,44.1934 40.4629,42.3379 L36.0684,30.2285 C36.6543,29.5938 37.5332,29.0078 38.3633,28.7148 C40.4629,27.9336 42.2207,28.9102 43.0508,31.0586 L47.0059,41.9961 C47.6895,43.9004 49.7891,44.6816 51.6445,44.0469 C53.4023,43.3633 54.4277,41.4102 53.7441,39.5059 L50.7168,31.1562 C51.3027,30.5215 52.1816,29.9355 53.0117,29.6426 C55.1113,28.8613 56.8691,29.8379 57.6992,31.9863 L60.2871,39.1641 C60.9707,41.0684 63.1191,41.8984 64.9258,41.2148 C66.684,40.5801 67.758,38.627 67.074,36.7227 L65.3652,32.0352 C69.076,30.668 72.689,33.9395 75.229,40.9219 L78.598,50.1016 C85.287,68.5098 78.939,82.7676 62.3867,88.82227 Z" id="Shape"></path>
                </g>
                <g id="Medium-M" transform="translate(1195.810000, 425.000000)">
                    <path d="M22.1758,53.3984 C22.2734,53.6426 22.2246,53.8867 21.9805,53.9355 C21.7852,54.0332 21.5898,53.9355 21.4434,53.7402 L16.4629,48.3203 C12.6055,44.1211 7.5273,43.8281 3.6699,47.0996 C-0.627,50.8105 -0.7246,56.4258 3.5723,61.6016 L19.9785,81.4258 C32.625,96.70898 47.5176,101.44531 64.1191,95.390625 C84.285,88.01758 92.732,69.7559 84.822,47.9297 L80.965,37.3828 C77.059,26.5918 69.588,22.0996 60.75,25.127 C58.4062,22.0996 54.6953,21.0742 50.7402,22.5391 C49.4219,23.0273 48.2012,23.7109 47.0293,24.6387 C44.3926,21.3184 40.4375,20.1465 36.2871,21.6602 C35.3105,22.002 34.3828,22.4902 33.5039,23.125 L27.9863,7.9883 C25.7402,1.9336 20.2227,-0.6543 14.4609,1.4453 C8.6504,3.5449 6.0625,9.1113 8.2598,15.166 L22.1758,53.3984 Z M61.8242,88.21289 C48.543,93.04688 36.6289,90.45898 25.3984,76.9336 L8.9922,57.1582 C7.3809,55.2539 7.3809,53.3984 8.7969,52.0801 C10.2129,50.8594 12.1172,51.25 13.582,52.7637 L25.0566,64.4336 C27.1074,66.4844 28.8164,66.7773 30.5742,66.1426 C32.5762,65.4102 33.4551,63.2617 32.5762,60.8691 L14.9492,12.3828 C14.2168,10.4297 15.0469,8.7207 16.8535,8.0371 C18.6602,7.4023 20.3203,8.2324 21.0527,10.1367 L33.5527,44.5605 C34.1875,46.3184 36.1895,47.0996 37.9473,46.4648 C39.6562,45.8789 40.584,43.9746 39.9492,42.2656 L35.5059,30.1074 C36.1406,29.4727 37.0195,28.8867 37.8984,28.5449 C40.0957,27.7637 41.9512,28.7402 42.7324,30.9863 L46.6875,41.7773 C47.3711,43.6328 49.3242,44.3652 51.0332,43.7305 C52.6934,43.0957 53.6699,41.2891 53.0352,39.4824 L49.959,30.9863 C50.5449,30.3516 51.4727,29.7656 52.3516,29.4238 C54.5488,28.6426 56.3555,29.6191 57.1855,31.8652 L59.7734,39.043 C60.457,40.8496 62.459,41.582 64.168,40.9473 C65.7793,40.3613 66.8047,38.5547 66.1699,36.748 L64.3633,31.7676 C68.27,30.3516 71.98,33.6719 74.568,40.8008 L77.791,49.6387 C84.48,68.0469 78.23,82.2559 61.8242,88.21289 Z" id="Shape"></path>
                </g>
                <g id="Regular-M" transform="translate(899.660000, 427.000000)">
                    <path d="M22.2969,52.8633 C22.3945,53.1074 22.3457,53.3027 22.1016,53.4004 C21.9551,53.498 21.7598,53.4004 21.6133,53.2539 L15.9004,47.0039 C12.0918,42.9512 7.3066,42.6582 3.5957,45.7832 C-0.5547,49.3477 -0.6523,54.6699 3.4492,59.6992 L19.8066,79.4746 C32.209,94.41602 46.6621,99.05469 62.873,93.146484 C82.258,86.11523 90.51,68.3418 82.697,46.8574 L79.084,36.8477 C75.227,26.252 68,21.9062 59.4062,24.8848 C57.1113,21.9062 53.5957,20.8809 49.7871,22.248 C48.4688,22.7363 47.248,23.4688 45.9785,24.3965 C43.4883,21.1738 39.6309,20.002 35.627,21.418 C34.5527,21.8086 33.5273,22.3945 32.5508,23.0781 L26.9844,7.8438 C24.8848,2.0332 19.6602,-0.4082 14.2402,1.5449 C8.7715,3.5469 6.2812,8.7715 8.3809,14.582 L22.2969,52.8633 Z M60.7734,86.75 C47.9805,91.4375 36.0176,89.04492 24.6895,75.4219 L8.332,55.7441 C6.623,53.6934 6.5742,51.6914 8.1367,50.3242 C9.6504,49.0059 11.6523,49.4453 13.2148,51.1055 L24.543,62.7754 C26.3984,64.7285 28.0586,64.9238 29.7188,64.3379 C31.623,63.6543 32.4043,61.6035 31.6719,59.5039 L14.3379,11.9453 C13.6055,9.9922 14.4844,8.1367 16.3887,7.4531 C18.2441,6.7695 20.0508,7.6973 20.7344,9.6504 L33.0879,43.5859 C33.6738,45.1973 35.4805,45.9297 37.0918,45.3438 C38.6543,44.7578 39.5332,43.0488 38.9473,41.4863 L34.5039,29.2305 C35.1387,28.5957 36.1152,27.9609 36.9941,27.6191 C39.2891,26.7891 41.1934,27.8145 42.0723,30.207 L45.9785,40.9004 C46.5645,42.5605 48.4199,43.1953 49.9824,42.6094 C51.4473,42.0723 52.4238,40.4609 51.7891,38.752 L48.6641,30.1094 C49.2988,29.4258 50.2754,28.791 51.1543,28.4492 C53.4492,27.6191 55.3535,28.6445 56.2324,31.0371 L58.8691,38.166 C59.4551,39.875 61.2617,40.5098 62.8242,39.9238 C64.3379,39.3867 65.2656,37.7266 64.6797,36.0664 L62.7754,30.793 C66.8281,29.3281 70.686,32.6484 73.371,39.9727 L76.398,48.3223 C83.088,66.7793 77.033,80.8418 60.7734,86.75 Z" id="Shape"></path>
                </g>
                <g id="Light-M" transform="translate(602.590000, 430.000000)">
                    <path d="M23.5879,52.6465 C23.6855,52.8906 23.6367,53.1348 23.3926,53.1836 C23.2461,53.2812 23.0508,53.1836 22.8555,52.9883 L15.3848,44.7363 C11.7227,40.7324 7.1328,40.5371 3.666,43.4668 C-0.0449,46.6895 -0.2402,51.6211 3.5195,56.2109 L20.3164,76.5723 C31.8887,90.634766 45.9023,95.0293 61.4297,89.414062 C79.691,82.77344 88.236,66.123 80.473,44.8828 L77.104,35.5566 C73.246,25.0098 66.4102,20.7129 58.1582,23.6426 C56.0098,20.7129 52.5918,19.6387 48.832,21.0059 C47.4648,21.4941 46.1953,22.2754 44.9258,23.252 C42.6309,20.1758 38.9688,19.0039 35.1113,20.4199 C33.9395,20.8594 32.8164,21.4941 31.7422,22.3242 L25.9805,6.4551 C24.0273,1.084 19.1445,-1.0645 14.3594,0.6934 C9.4277,2.5 7.084,7.2363 9.0371,12.6562 L23.5879,52.6465 Z M59.7695,84.43359 C46.9277,89.121094 34.7695,86.19141 24.2227,73.3984 L7.377,53.0371 C5.5215,50.8398 5.4727,48.5938 7.2305,47.0312 C8.9395,45.5664 11.1855,46.0059 12.9922,47.959 L24.1738,59.873 C25.7852,61.5332 27.25,61.7773 28.7637,61.1914 C30.4727,60.5566 31.3027,58.7988 30.6191,56.8457 L13.7734,10.6055 C12.8945,8.2617 13.8223,6.1133 16.0195,5.332 C18.2168,4.502 20.2188,5.625 21.0488,7.9688 L33.0117,40.7324 C33.4512,42.0508 34.8672,42.7832 36.2344,42.2949 C37.5527,41.8066 38.1387,40.3906 37.6504,39.0234 L33.2559,27.0605 C34.0859,26.3281 35.1602,25.6445 36.1855,25.2539 C38.7734,24.3262 40.9219,25.4492 41.9961,28.2812 L45.5605,38.0957 C46.0977,39.6582 47.5625,40.1465 48.7832,39.707 C50.0039,39.2676 50.7363,37.9492 50.1992,36.4355 L47.0254,27.6953 C47.8066,26.9141 48.9297,26.2305 49.9062,25.8398 C52.543,24.9121 54.6914,26.0352 55.7168,28.8672 L58.1094,35.5078 C58.6953,37.0703 60.1113,37.5586 61.3809,37.1191 C62.5527,36.6797 63.334,35.3613 62.7969,33.8477 L60.7461,28.2324 C65.4336,26.5234 69.6328,29.9414 72.514,37.9004 L75.541,46.1523 C82.328,64.8535 75.59,78.7207 59.7695,84.43359 Z" id="Shape"></path>
                </g>
                <g id="Thin-M" transform="translate(306.391000, 433.000000)">
                    <path d="M24.3418,53.3574 C24.4395,53.6016 24.3906,53.7969 24.1465,53.8945 C23.9512,53.9434 23.7559,53.8945 23.5605,53.6504 L13.7461,42.6641 C10.2793,38.7578 5.8848,38.709 2.8086,41.3457 C-0.3652,44.1289 -0.707,48.5723 2.6133,52.5762 L20.0449,73.7676 C30.543,86.560547 43.9219,90.71094 58.5215,85.38867 C75.318,79.28516 84.205,64.1973 76.588,43.25 L73.5117,34.7539 C69.6543,24.2559 63.4043,20.1543 55.5918,22.9375 C53.5898,20.1055 50.2695,19.0312 46.6074,20.3496 C45.1914,20.8379 43.873,21.668 42.5547,22.6934 C40.5527,19.8613 37.1348,18.6895 33.4238,20.0566 C32.1543,20.4961 30.8848,21.2773 29.7129,22.2051 L23.6582,5.6523 C21.9004,0.8184 17.5547,-0.9395 13.502,0.5254 C9.3027,2.0391 7.1543,6.1895 8.9121,10.9746 L24.3418,53.3574 Z M57.4961,82.36133 C44.5078,87.0976562 32.1055,83.33789 22.584,71.668 L5.1523,50.4766 C3.1016,48.0352 3.0039,45.4473 5.0547,43.6895 C7.0566,41.9805 9.5957,42.4199 11.6953,44.8125 L22.7793,56.9707 C23.9512,58.2891 25.2207,58.5332 26.5391,58.0449 C28.0527,57.5078 28.8828,56.043 28.248,54.334 L12.0371,9.7539 C11.0117,6.9219 11.9883,4.3828 14.5762,3.4551 C17.2129,2.4785 19.459,3.8457 20.4844,6.6777 L31.8613,37.9277 C32.252,38.9043 33.082,39.5879 34.1074,39.1973 C35.1328,38.8555 35.3281,37.7812 34.9375,36.8047 L30.7383,25.1836 C31.7148,24.3047 32.9844,23.5234 34.1074,23.084 C37.1348,22.0098 39.625,23.2793 40.8457,26.6973 L44.0195,35.4375 C44.5078,36.7559 45.4355,37.0488 46.2656,36.7559 C47.0469,36.4629 47.584,35.6328 47.0957,34.3145 L43.873,25.4766 C44.8984,24.5977 46.168,23.8164 47.291,23.377 C50.3184,22.3027 52.8086,23.5723 54.0293,26.9902 L56.2266,32.9961 C56.7148,34.3145 57.6426,34.6074 58.4727,34.3145 C59.2539,34.0215 59.791,33.1914 59.3027,31.873 L57.1055,25.8184 C62.623,23.8164 67.2617,27.3809 70.4355,36.1211 L73.4141,44.2266 C80.299,63.2695 72.7305,76.8438 57.4961,82.36133 Z" id="Shape"></path>
                </g>
                <g id="Ultralight-M" transform="translate(9.462000, 434.000000)">
                    <path d="M25.1699,54.2617 C25.2676,54.5059 25.2188,54.7012 24.9746,54.7988 C24.8281,54.8477 24.584,54.7988 24.3398,54.5547 L13.3535,42.1523 C9.9844,38.2949 5.6875,38.3438 2.8555,40.834 C-0.0742,43.3242 -0.4648,47.5723 2.6113,51.2344 L20.3848,72.8652 C30.3457,85.023438 43.3828,89.02734 57.4941,83.90039 C73.5586,78.04102 82.592,63.7344 75.0234,42.9824 L72.0938,34.9258 C68.2852,24.4277 62.3281,20.375 54.7109,23.1094 C52.8066,20.375 49.5352,19.2031 45.9219,20.5215 C44.5059,21.0586 43.1387,21.8887 41.8203,22.9629 C39.9648,20.1797 36.6445,19.1055 33.0312,20.4238 C31.7129,20.8633 30.3457,21.6934 29.125,22.7188 L22.9238,5.7266 C21.3125,1.1855 17.1621,-0.3281 13.5488,0.9902 C9.7402,2.3574 7.6895,6.166 9.3496,10.707 L25.1699,54.2617 Z M56.7617,81.84961 C43.7734,86.585938 31.2246,82.43555 22.1914,71.3027 L4.4668,49.6719 C2.3672,47.1328 2.2207,44.3496 4.418,42.4941 C6.5176,40.6387 9.252,41.127 11.498,43.7148 L22.4844,56.0684 C23.5098,57.1914 24.6328,57.4355 25.8535,56.9961 C27.2695,56.459 28.0996,55.1895 27.5137,53.5781 L11.5957,9.877 C10.4727,6.752 11.498,4.0664 14.3301,3.041 C17.1621,1.9668 19.5547,3.4316 20.6777,6.5566 L31.7617,37.0254 C32.0547,37.8066 32.6406,38.4414 33.4707,38.1484 C34.3496,37.8555 34.3496,37.0254 34.0566,36.1953 L29.8574,24.7207 C30.9805,23.793 32.3477,22.9629 33.5195,22.5234 C36.791,21.3516 39.4277,22.7188 40.7461,26.4297 L43.7246,34.584 C44.1641,35.8047 44.7988,36.0488 45.4336,35.8047 C46.0195,35.6094 46.459,34.9746 46.0195,33.7539 L42.748,24.8672 C43.8711,23.9395 45.2383,23.1094 46.4102,22.6699 C49.6816,21.498 52.3184,22.8652 53.6367,26.5762 L55.6875,32.2402 C56.1758,33.4609 56.8105,33.6562 57.4453,33.4121 C57.9824,33.2168 58.4219,32.6309 57.9824,31.4102 L55.6875,25.1113 C61.6445,22.9629 66.4785,26.5762 69.8477,35.707 L72.7773,43.8125 C79.76,62.9531 71.752,76.42969 56.7617,81.84961 Z" id="Shape"></path>
                </g>
                <g id="Black-S" transform="translate(2387.220000, 0.000000)">
                    <path d="M17.1914,44.6875 C17.2402,44.8828 17.1914,45.0293 17.0449,45.0781 C16.8984,45.127 16.7031,45.0781 16.6055,44.9316 L15.3359,43.4668 C11.918,39.5117 6.8887,39.3652 3.5195,42.3926 C-0.3867,45.8105 -0.3867,51.1816 3.4707,55.8691 L16.5078,71.5918 C27.3477,84.67773 40.4336,88.68164 55.0332,83.4082 C73.295,76.6699 80.766,60.6055 74.125,42.3438 L70.4141,32.1387 C67.0449,22.959 60.4043,18.9551 52.6406,21.4941 C50.4922,19.0039 46.9277,18.2715 43.4121,19.541 C42.3867,19.8828 41.5566,20.3711 40.7754,20.957 C38.3828,18.2227 34.7695,17.3438 31.1562,18.6621 C30.6191,18.8574 30.1797,19.0527 29.7891,19.248 L25.6387,7.8223 C23.5879,2.1582 18.1191,-0.3809 12.5039,1.6699 C7.21668756,3.63506878 4.61962357,8.51452679 6.00166264,13.7734796 C6.0418104,13.9262503 9.77172285,24.2309238 17.1914,44.6875 Z M52.3477,75.2051 C40.3848,79.5508 31.1562,76.7676 22.6602,66.4648 L9.6719,50.6934 C8.8418,49.7168 8.9395,48.7402 9.5742,48.0566 C10.3555,47.3242 11.4297,47.4707 12.2109,48.2031 L21.7812,57.2363 C24.0273,59.2871 25.6387,59.7754 27.4453,59.1406 C29.3008,58.457 30.2285,56.3574 29.1543,53.4766 L14.1152,12.1191 C13.5781,10.7031 14.1152,9.7266 15.2871,9.2871 C16.3613,8.8965 17.3379,9.3359 17.875,10.752 L28.2754,39.3164 C28.959,41.1719 31.1074,42.0996 32.9629,41.416 C34.8672,40.7324 35.7949,38.6816 35.1113,36.8262 L31.7422,27.5488 C32.084,27.1094 32.6211,26.7188 33.1582,26.5234 C34.5742,26.0352 35.6973,26.7188 36.1855,28.0371 L39.4082,36.9727 C40.0918,38.8281 42.1914,39.707 44.0957,39.0234 C45.9512,38.3398 46.8789,36.2891 46.1953,34.4824 L43.998,28.4277 C44.3398,27.9883 44.9258,27.6465 45.4629,27.4023 C46.8301,26.9141 47.9531,27.5977 48.4414,28.916 L50.4922,34.5801 C51.1758,36.4355 53.3242,37.3633 55.2285,36.6797 C56.9863,35.9961 58.0117,33.9453 57.3281,32.0898 L56.3516,29.3555 C58.7441,28.4766 61.1855,30.918 62.9922,35.8496 L66.0684,44.3945 C71.293,58.75 65.9219,70.2734 52.3477,75.2051 Z" id="Shape"></path>
                </g>
                <g id="Heavy-S" transform="translate(2090.780000, 2.000000)">
                    <path d="M17.5078,43.8105 C17.6055,44.0059 17.5566,44.2012 17.3613,44.25 C17.2148,44.2988 17.0684,44.25 16.9707,44.1035 L15.1152,42.0527 C11.7949,38.293 7.0586,38.0977 3.7383,41.0273 C-0.0215,44.3477 -0.0703,49.4746 3.6895,54.0156 L16.6289,69.5918 C27.3223,82.48242 40.0176,86.4375 54.2266,81.26172 C71.9023,74.7676 79.129,59.0938 72.586,41.125 L69.0215,31.4082 C65.75,22.4238 59.3047,18.5664 51.7363,21.0566 C49.6855,18.6152 46.3164,17.834 42.8984,19.1035 C41.873,19.4453 40.9941,19.9336 40.1641,20.5684 C37.8691,17.834 34.3535,16.9551 30.8379,18.2246 C30.3008,18.4199 29.7637,18.7129 29.2754,18.957 L25.125,7.4824 C23.123,2.0625 17.9473,-0.3789 12.5762,1.5742 C7.51751553,3.44774065 5.01999455,8.15196831 6.41961211,13.2732125 C6.45923501,13.4181939 10.1552976,23.5972898 17.5078,43.8105 Z M51.7852,73.6445 C40.2617,77.8438 30.9844,75.3535 22.3418,64.8555 L9.4512,49.2305 C8.5234,48.1562 8.5723,47.0332 9.3535,46.3008 C10.1836,45.5195 11.3555,45.7148 12.2344,46.5449 L21.6582,55.5781 C23.709,57.5312 25.2715,57.9219 26.9805,57.3359 C28.7871,56.6523 29.6172,54.6504 28.6406,52.0625 L13.8945,11.5352 C13.4062,10.1191 13.9434,9.0938 15.1641,8.6543 C16.2871,8.2148 17.3613,8.7031 17.8496,10.0703 L28.1523,38.3418 C28.7871,40.0508 30.7891,40.9297 32.5957,40.2949 C34.3047,39.6602 35.2324,37.707 34.5977,35.998 L31.1797,26.5742 C31.5215,26.1348 32.1074,25.7441 32.6934,25.5488 C34.1582,25.0117 35.3301,25.7441 35.8672,27.1113 L39.0898,35.998 C39.7246,37.7559 41.6777,38.5859 43.4355,37.9512 C45.1934,37.3164 46.1211,35.4121 45.4863,33.6543 L43.1914,27.4531 C43.582,27.0137 44.168,26.623 44.7539,26.4277 C46.1699,25.8906 47.3906,26.5742 47.8789,27.9902 L49.9785,33.7031 C50.5645,35.4121 52.6152,36.2422 54.373,35.6074 C56.0332,35.0215 57.0098,33.0684 56.375,31.3594 L55.3008,28.2832 C57.791,27.4043 60.3301,29.8457 62.1855,34.9238 L65.1152,42.9805 C70.3398,57.3359 65.2129,68.7617 51.7852,73.6445 Z" id="Shape"></path>
                </g>
                <g id="Bold-S" transform="translate(1795.510000, 5.000000)">
                    <path d="M16.7754,42.1289 C16.8242,42.3242 16.8242,42.4707 16.6289,42.5684 C16.4824,42.6172 16.3359,42.5195 16.2383,42.4219 L13.7969,39.7363 C10.5742,36.1719 6.1309,35.9277 2.9082,38.7109 C-0.7539,41.9336 -0.8027,46.7676 2.8594,51.1621 L15.6523,66.6406 C26.1016,79.28711 38.4551,83.14453 52.2246,78.11523 C69.2656,71.9141 76.15,56.6309 69.7539,39.0527 L66.3848,29.8242 C63.2109,21.084 56.9609,17.373 49.6367,19.8145 C47.6348,17.373 44.4609,16.6406 41.1895,17.8125 C40.1641,18.2031 39.2852,18.6914 38.4062,19.375 C36.1602,16.6406 32.8398,15.7617 29.4219,16.9824 C28.7871,17.2266 28.1523,17.5195 27.6152,17.9102 L23.416,6.3379 C21.5117,1.1133 16.6289,-1.1816 11.5508,0.6738 C6.62201789,2.47474035 4.31507196,7.08159463 5.83563145,12.0834815 C5.86634178,12.1845033 9.51293129,22.1996428 16.7754,42.1289 Z M49.9785,71.1816 C38.9922,75.18555 29.7148,72.9883 20.877,62.2949 L8.084,46.8652 C7.0098,45.5957 7.0586,44.375 7.9863,43.5449 C8.8652,42.7148 10.1348,42.959 11.1113,43.8867 L20.3398,52.9199 C22.2441,54.7754 23.7578,55.1172 25.3203,54.5312 C27.0781,53.8965 27.8105,52.041 26.9805,49.6973 L12.5762,10.0977 C12.0879,8.7305 12.6738,7.5586 13.8945,7.1191 C15.1152,6.6797 16.2383,7.2168 16.7266,8.584 L26.8828,36.4648 C27.4688,38.0762 29.373,38.8086 30.9844,38.2227 C32.5957,37.6367 33.4746,35.8789 32.8887,34.2676 L29.4219,24.7949 C29.8125,24.3066 30.4473,23.916 31.0332,23.7207 C32.5469,23.1348 33.8164,23.8672 34.3535,25.332 L37.5762,34.1699 C38.1621,35.8301 40.0176,36.5625 41.6289,35.9766 C43.2402,35.3906 44.1191,33.6328 43.5332,32.0215 L41.1895,25.625 C41.5801,25.1367 42.2148,24.7461 42.8008,24.502 C44.3145,23.9648 45.584,24.6484 46.1211,26.1621 L48.2207,31.9238 C48.8066,33.5352 50.7109,34.2676 52.3223,33.6816 C53.8848,33.1445 54.8125,31.3379 54.2266,29.7266 L53.0059,26.4062 C55.6426,25.4297 58.2793,27.9199 60.1836,33.0957 L62.918,40.6641 C68.1426,55.0195 63.2598,66.3477 49.9785,71.1816 Z" id="Shape"></path>
                </g>
                <g id="Semibold-S" transform="translate(1498.780000, 6.000000)">
                    <path d="M17.2871,42.0078 C17.3359,42.2031 17.2871,42.3984 17.0918,42.4473 C16.9941,42.4961 16.8477,42.4473 16.7012,42.3008 L13.8203,39.1758 C10.6953,35.7578 6.4961,35.5137 3.3223,38.1992 C-0.291,41.3242 -0.291,46.0117 3.2246,50.3086 L15.9688,65.6406 C26.3203,78.14062 38.332,81.94922 51.8574,77.01758 C68.4102,71.0117 75.1,56.0215 68.8008,38.6387 L65.5781,29.8496 C62.4531,21.2559 56.3496,17.5938 49.1719,20.0352 C47.2676,17.6426 44.1914,16.8613 41.0176,18.0332 C39.9922,18.375 39.0645,18.9121 38.1855,19.5957 C36.0371,16.9102 32.7656,15.9824 29.3965,17.2031 C28.7129,17.4473 28.0781,17.7891 27.4434,18.2285 L23.2441,6.6074 C21.3887,1.5781 16.75,-0.6191 11.8184,1.1387 C7.01554177,2.91568574 4.81105581,7.47989668 6.50581342,12.4150619 C6.52464268,12.4698931 10.1184049,22.3341391 17.2871,42.0078 Z M49.7578,70.5234 C39.1133,74.38086 29.8359,72.4277 20.9004,61.6367 L8.1562,46.3047 C6.9844,44.9375 7.0332,43.6191 8.0098,42.7402 C8.9863,41.8613 10.3047,42.1543 11.3301,43.1797 L20.4609,52.2129 C22.2676,53.9707 23.7324,54.2637 25.1973,53.6777 C26.9062,53.0918 27.5898,51.2852 26.8574,49.1855 L12.6484,10.1719 C12.1602,8.8047 12.7461,7.6328 14.0156,7.1445 C15.2852,6.7051 16.457,7.2422 16.9941,8.6094 L27.0039,36.2461 C27.5898,37.7598 29.3477,38.4434 30.9102,37.9062 C32.4238,37.3203 33.2539,35.709 32.7168,34.1465 L29.2012,24.5762 C29.6406,24.1367 30.2754,23.6973 30.9102,23.502 C32.4727,22.916 33.7422,23.5996 34.3281,25.2109 L37.5508,34 C38.0879,35.5625 39.8457,36.2461 41.4082,35.6602 C42.9219,35.123 43.752,33.4629 43.2148,31.9492 L40.8223,25.4062 C41.2129,24.918 41.8965,24.5273 42.4824,24.2832 C44.0449,23.6973 45.3633,24.4297 45.9492,25.9922 L48.0488,31.7539 C48.5859,33.3164 50.3926,34 51.9062,33.4141 C53.3711,32.877 54.2988,31.2168 53.7129,29.7031 L52.3945,26.1387 C55.1289,25.1133 57.8633,27.6523 59.8164,32.9258 L62.4043,40.1523 C67.6289,54.5078 62.8926,65.7383 49.7578,70.5234 Z" id="Shape"></path>
                </g>
                <g id="Medium-S" transform="translate(1202.800000, 7.000000)">
                    <path d="M16.8965,41.6914 C16.9453,41.8867 16.8965,42.0332 16.7012,42.1309 C16.6035,42.1797 16.457,42.1309 16.3594,41.9844 L13.1367,38.5664 C10.0605,35.1973 6.0078,34.9531 2.8828,37.5898 C-0.6816,40.6172 -0.6816,45.1582 2.7852,49.4062 L15.4805,64.6895 C25.6855,77.04297 37.502,80.80273 50.832,75.96875 C67.043,70.0605 73.586,55.2656 67.3359,38.127 L64.2109,29.582 C61.1348,21.1348 55.1289,17.5703 48.0977,19.9629 C46.1934,17.5703 43.2637,16.7891 40.1387,17.9121 C39.1133,18.3027 38.1855,18.8398 37.2578,19.5234 C35.1582,16.8867 31.9355,15.959 28.6641,17.1309 C27.9316,17.4238 27.1992,17.7656 26.5645,18.2539 L22.3164,6.584 C20.5586,1.6523 16.0176,-0.4961 11.2812,1.2617 C6.5449,2.9707 4.4453,7.5117 6.252,12.4434 L16.8965,41.6914 Z M48.8301,69.8164 C38.4785,73.57617 29.2012,71.7695 20.1191,60.832 L7.4238,45.5977 C6.2031,44.1816 6.252,42.8145 7.2773,41.8867 C8.3027,40.959 9.6699,41.252 10.7441,42.375 L19.7773,51.4082 C21.4863,53.1172 22.9023,53.3125 24.3672,52.8242 C25.9785,52.2383 26.6621,50.4316 25.9785,48.5273 L11.9648,10.002 C11.4277,8.6348 12.0625,7.4141 13.3809,6.9258 C14.6504,6.4863 15.8711,7.0234 16.3594,8.3906 L26.3691,35.832 C26.9062,37.2969 28.6152,37.9316 30.0801,37.3945 C31.4961,36.8574 32.3262,35.2949 31.7891,33.8301 L28.3223,24.2109 C28.7129,23.7715 29.3965,23.332 30.0312,23.0879 C31.6426,22.502 32.9609,23.2344 33.5469,24.8457 L36.7695,33.6348 C37.3066,35.0996 38.9668,35.7344 40.4316,35.1973 C41.8965,34.6602 42.7266,33.0977 42.1895,31.6328 L39.7969,24.9922 C40.1875,24.5527 40.8711,24.1133 41.5059,23.8691 C43.1172,23.2832 44.4355,24.0156 45.0215,25.627 L47.1211,31.4375 C47.6582,32.9023 49.3672,33.5371 50.832,33 C52.248,32.4629 53.127,30.9004 52.5898,29.4355 L51.2227,25.6758 C54.0059,24.6992 56.7891,27.2383 58.7422,32.5605 L61.2812,39.4941 C66.5059,53.8496 61.8672,65.0312 48.8301,69.8164 Z" id="Shape"></path>
                </g>
                <g id="Regular-S" transform="translate(906.060000, 9.000000)">
                    <path d="M17.3594,40.5703 C17.457,40.7656 17.4082,40.9609 17.2129,41.0098 C17.0664,41.0586 16.9688,41.0098 16.8711,40.8633 L13.209,37.0059 C10.1816,33.7832 6.373,33.4902 3.2969,36.0781 C-0.1699,39.0078 -0.1699,43.3535 3.1992,47.5039 L15.7969,62.6895 C25.8555,74.89648 37.4277,78.60742 50.4648,73.87109 C66.2363,68.1582 72.5352,53.6562 66.3828,36.7129 L63.4043,28.5586 C60.4258,20.2578 54.5176,16.791 47.6328,19.1836 C45.8262,16.791 42.9941,16.0098 39.9668,17.084 C38.9414,17.4746 38.0137,18.0117 37.0859,18.7441 C34.9863,16.1074 31.8613,15.1797 28.6875,16.3516 C27.9062,16.6445 27.125,17.0352 26.3926,17.5234 L22.1445,5.8535 C20.4355,1.1172 16.1387,-0.9824 11.5977,0.6777 C7.0566,2.3379 5.0547,6.6836 6.7637,11.4688 L17.3594,40.5703 Z M48.6094,68.1582 C38.5996,71.77148 29.3223,70.209 20.0938,59.1738 L7.4961,44.0371 C6.2266,42.4746 6.2266,41.0586 7.3496,40.0332 C8.4238,39.1055 9.8398,39.4473 10.9629,40.6191 L19.8984,49.6523 C21.5098,51.3125 22.877,51.459 24.2441,50.9707 C25.8066,50.3848 26.4414,48.6758 25.8066,46.9668 L12.0371,9.0762 C11.5488,7.7578 12.1836,6.4395 13.502,5.9512 C14.8203,5.4629 16.1387,6.0977 16.627,7.416 L26.4902,34.5645 C27.0273,35.9805 28.5898,36.5664 30.0059,36.0293 C31.3242,35.541 32.1543,34.0762 31.666,32.709 L28.1016,23.041 C28.541,22.5527 29.2246,22.1133 29.9082,21.8691 C31.5684,21.2344 32.9355,21.9668 33.5215,23.627 L36.7441,32.416 C37.2324,33.832 38.8438,34.3691 40.2109,33.8809 C41.5293,33.3926 42.3594,31.9277 41.8711,30.5605 L39.4297,23.7734 C39.8203,23.334 40.5039,22.8457 41.1875,22.6016 C42.8477,22.0156 44.2148,22.748 44.8496,24.4082 L46.9492,30.2676 C47.4863,31.6348 49.0977,32.2207 50.4648,31.7324 C51.7832,31.2441 52.6133,29.7793 52.0762,28.3633 L50.6602,24.457 C53.541,23.3828 56.4219,25.9707 58.375,31.3906 L60.7676,37.9824 C65.9922,52.3379 61.5488,63.4219 48.6094,68.1582 Z" id="Shape"></path>
                </g>
                <g id="Light-S" transform="translate(609.700000, 11.000000)">
                    <path d="M17.8457,41.0605 C17.9434,41.2559 17.8945,41.4023 17.6992,41.4512 C17.5527,41.5 17.4062,41.4512 17.3086,41.3047 L12.084,35.6406 C9.2031,32.4668 5.4922,32.2715 2.709,34.6641 C-0.3672,37.3008 -0.5137,41.3535 2.6113,45.0645 L15.5996,60.8359 C24.9746,72.16406 36.1074,75.72852 48.5098,71.1875 C63.3047,65.8164 69.8477,52.3887 63.793,35.6406 L61.0098,28.0723 C57.9824,19.7715 52.5137,16.4023 45.9219,18.6973 C44.1641,16.4023 41.4297,15.5723 38.4512,16.6465 C37.4258,17.0371 36.4492,17.623 35.4727,18.3555 C33.5684,15.9141 30.6387,14.9863 27.5625,16.1094 C26.6836,16.4023 25.8535,16.8906 25.0234,17.4766 L20.5801,5.3184 C19.0176,0.9238 15.0625,-0.8828 11.0586,0.582 C6.957,2.0469 5.1016,6.002 6.7129,10.3477 L17.8457,41.0605 Z M47.0938,66.7441 C37.0352,70.40625 27.5625,68.3555 19.0176,58.0039 L6.0293,42.2812 C4.6133,40.6211 4.5645,38.9609 5.8828,37.7891 C7.1523,36.7148 8.8125,37.0566 10.1309,38.4727 L18.9199,47.75 C20.2871,49.1172 21.5078,49.3125 22.7285,48.873 C24.1934,48.3359 24.8281,46.8711 24.2422,45.2598 L10.8633,8.541 C10.2285,6.832 10.9121,5.2695 12.5234,4.6836 C14.1348,4.0977 15.5996,4.8789 16.2344,6.5879 L25.7559,32.7109 C26.1465,33.8828 27.416,34.4199 28.5879,33.9805 C29.7109,33.5898 30.248,32.3691 29.8574,31.2461 L26.3906,21.7734 C26.9766,21.1875 27.7578,20.6992 28.4902,20.4062 C30.4434,19.7227 32.0547,20.5527 32.7871,22.6035 L35.7168,30.6113 C36.1562,31.8809 37.4258,32.3203 38.5488,31.9297 C39.5742,31.5391 40.2578,30.416 39.8184,29.1465 L37.3281,22.3105 C37.8652,21.7734 38.6953,21.2363 39.4277,20.9922 C41.3809,20.2598 42.9434,21.0898 43.7246,23.1406 L45.6777,28.5605 C46.1172,29.8301 47.3867,30.2695 48.5098,29.8789 C49.5352,29.4883 50.2188,28.3164 49.7793,27.0957 L48.2168,22.7988 C51.6836,21.5781 54.8086,24.2148 57.0059,30.1719 L59.3496,36.7148 C64.6719,51.2656 59.6426,62.2031 47.0938,66.7441 Z" id="Shape"></path>
                </g>
                <g id="Thin-S" transform="translate(313.085000, 13.000000)">
                    <path d="M18.8438,42.332 C18.9414,42.4785 18.8926,42.6738 18.6973,42.7227 C18.5508,42.7715 18.4043,42.7227 18.2578,42.5762 L10.9824,34.4707 C8.248,31.3945 4.7324,31.3457 2.291,33.4453 C-0.2969,35.6914 -0.541,39.3047 2.1445,42.5273 L15.6699,58.9824 C24.1172,69.23633 34.7129,72.50781 46.334,68.30859 C59.7617,63.4258 66.6465,51.3164 60.6406,34.8613 L58.1992,28.0254 C55.1719,19.7734 50.1914,16.5508 43.9414,18.748 C42.3789,16.502 39.7422,15.6719 36.8613,16.6973 C35.7871,17.0879 34.7129,17.7227 33.7363,18.5527 C32.0762,16.2578 29.3418,15.3789 26.4121,16.4531 C25.4844,16.7949 24.459,17.3809 23.5801,18.0645 L18.8926,5.2227 C17.4766,1.3164 13.9609,-0.0996 10.6895,1.0723 C7.2227,2.3418 5.5137,5.6621 6.9297,9.5684 L18.8438,42.332 Z M45.4062,65.5742 C35.25,69.28516 25.582,66.4531 17.916,57.127 L4.3906,40.6719 C2.8281,38.7676 2.7305,36.8145 4.293,35.4961 C5.8066,34.1777 7.7109,34.5684 9.3223,36.3262 L18.0137,45.8477 C19.0391,46.9219 20.0645,47.1172 21.1387,46.7266 C22.3594,46.2871 22.9941,45.0664 22.5059,43.6992 L9.6641,8.4453 C8.8828,6.2969 9.6641,4.3926 11.6172,3.709 C13.5703,2.9766 15.3281,3.9531 16.1094,6.1016 L25.0938,30.9062 C25.3867,31.7363 26.2168,32.2246 27.0469,31.9316 C27.877,31.6387 28.1211,30.7598 27.8281,29.8809 L24.459,20.7012 C25.2402,20.0664 26.2168,19.4805 27.0469,19.1387 C29.3418,18.3086 31.1973,19.2852 32.125,21.873 L34.7129,28.9043 C35.1035,29.9785 35.9336,30.2715 36.666,29.9785 C37.3496,29.7344 37.7891,29.002 37.3984,27.9277 L34.9082,20.9941 C35.6406,20.3594 36.6172,19.7246 37.4961,19.4316 C39.791,18.6016 41.6465,19.5781 42.5742,22.166 L44.332,26.9512 C44.7227,28.0254 45.5527,28.3184 46.2852,28.0742 C46.9688,27.7812 47.4082,27.0488 47.0176,25.9746 L45.3574,21.3359 C49.5078,19.8223 53.0723,22.5566 55.5137,29.2461 L57.8086,35.6914 C63.2285,50.4863 57.4668,61.1797 45.4062,65.5742 Z" id="Shape"></path>
                </g>
                <g id="Ultralight-S" transform="translate(15.961000, 15.000000)">
                    <path d="M9.7109,14.209 L19.8184,41.9922 C19.916,42.1875 19.8672,42.334 19.6719,42.4316 C19.5254,42.4805 19.3789,42.4316 19.1836,42.2363 L10.8828,32.9102 C8.1973,29.834 4.8281,29.8828 2.5332,31.8359 C0.1895,33.8867 -0.1035,37.2559 2.3867,40.2344 L16.2051,57.0801 C24.1641,66.74805 34.4668,69.92188 45.6484,65.86914 C58.4414,61.1816 65.4727,49.8047 59.5156,33.4473 L57.1719,27.0508 C54.9198222,20.8483427 51.6627453,17.4932021 47.590696,17.154267 C46.2772301,17.0449413 44.8789724,17.2494297 43.4023,17.7734 C41.8887,15.625 39.3496,14.7461 36.4688,15.7715 C35.3945,16.1621 34.3203,16.7969 33.2949,17.627 C31.7812,15.4785 29.1445,14.5996 26.3125,15.625 C25.2871,15.9668 24.2617,16.6016 23.2852,17.3828 L18.5,4.1992 C17.1816,0.5371 13.8613,-0.6836 10.9316,0.3906 C7.8555,1.5137 6.1953,4.541 7.5137,8.2031 L8.9785,12.1582 L9.7109,14.209 Z M45.0137,64.0137 C34.8086,67.72461 25.043,64.5508 17.8164,55.7129 L3.998,38.8672 C2.3867,36.8652 2.2891,34.7656 3.9492,33.3496 C5.5605,31.9336 7.6602,32.3242 9.418,34.2773 L18.0117,43.8965 C18.8418,44.8242 19.7695,45.0195 20.7461,44.6777 C21.8691,44.2383 22.5527,43.2129 22.0645,41.8945 L9.5156,7.4219 C8.6855,5.0781 9.4668,2.9785 11.6152,2.1973 C13.7637,1.416 15.6191,2.5391 16.498,4.9316 L25.2383,28.9551 C25.4824,29.6387 26.0195,30.1758 26.7031,29.9316 C27.4355,29.6387 27.4844,28.9062 27.2402,28.2715 L23.9688,19.2383 C24.7988,18.5059 25.8242,17.8711 26.752,17.5293 C29.2422,16.6504 31.2441,17.6758 32.2695,20.5078 L34.6621,27.0508 C35.0039,28.0273 35.5898,28.2227 36.1758,28.0273 C36.6641,27.832 37.0059,27.2949 36.6641,26.3184 L34.125,19.3848 C35.0039,18.6523 36.0293,18.0176 36.9082,17.6758 C39.3984,16.748 41.4492,17.8223 42.4746,20.6543 L44.0859,25.1953 C44.4766,26.1719 45.0625,26.3672 45.5996,26.1719 C46.0879,25.9766 46.4785,25.4395 46.0879,24.4629 L44.3301,19.5801 C48.8711,17.9199 52.6309,20.752 55.2188,27.832 L57.5137,34.1797 C62.9336,49.1211 56.7812,59.7168 45.0137,64.0137 Z" id="Shape"></path>
                </g>
            </g>
        </g>
    </g>
</svg>